<?xml version="1.0" encoding="UTF-8" standalone="no"?>
<!-- Created with Inkscape (http://www.inkscape.org/) -->

<svg
   xmlns:dc="http://purl.org/dc/elements/1.1/"
   xmlns:cc="http://creativecommons.org/ns#"
   xmlns:rdf="http://www.w3.org/1999/02/22-rdf-syntax-ns#"
   xmlns:svg="http://www.w3.org/2000/svg"
   xmlns="http://www.w3.org/2000/svg"
   version="1.1"
   width="1300.0005"
   height="371.00842"
   id="svg3251">
  <defs
     id="defs3253" />
  <metadata
     id="metadata3256">
    <rdf:RDF>
      <cc:Work
         rdf:about="">
        <dc:format>image/svg+xml</dc:format>
        <dc:type
           rdf:resource="http://purl.org/dc/dcmitype/StillImage" />
        <dc:title></dc:title>
      </cc:Work>
    </rdf:RDF>
  </metadata>
  <g
     transform="translate(-137.46857,-253.70614)"
     id="layer1">
    <path
       d="m 310.74438,306.47707 c -0.76489,-0.46732 -0.66926,-0.58992 0.48897,-0.62691 0.80288,-0.0256 1.27624,0.23421 1.07013,0.58743 -0.44447,0.76163 -0.37974,0.76003 -1.5591,0.0394 z m -72.20694,7.19857 c -0.003,-0.13502 0.42508,-0.42323 0.95223,-0.64102 0.5496,-0.22684 0.80258,-0.12861 0.59305,0.23037 -0.35124,0.60182 -1.53251,0.91581 -1.54528,0.41068 z m -14.72191,10.08212 c -0.0224,-0.77712 0.78444,-1.36054 2.34674,-1.70266 0.67128,-0.14686 1.14925,0.11198 1.16236,0.63004 0.0128,0.48385 -0.329,0.88852 -0.75827,0.8994 -0.4293,0.01 -1.22012,0.20124 -1.7574,0.42325 -0.53732,0.22205 -0.98435,0.10943 -0.99343,-0.25019 z m -6.20153,0.39356 c -1.44945,-0.74087 -1.31785,-0.80162 2.00469,-0.92538 1.9558,-0.0733 3.5628,0.13758 3.57118,0.46757 0.006,0.33009 -0.33511,0.62985 -0.76323,0.66619 -0.42809,0.0362 -1.33706,0.18269 -2.01992,0.32536 -0.68283,0.14237 -1.93958,-0.0976 -2.79272,-0.53374 z m -30.14541,18.24482 c -0.003,-0.15134 0.2694,-0.45561 0.60694,-0.67624 0.33764,-0.22077 0.62143,-0.10399 0.63062,0.25915 0.01,0.36321 -0.26396,0.66751 -0.60694,0.67618 -0.34302,0.006 -0.62678,-0.10782 -0.63062,-0.25916 z M 1340.4959,316.20107 c 0.4178,-0.18173 1.2595,-0.2134 1.8703,-0.0704 0.6108,0.1427 0.2688,0.29147 -0.7598,0.33006 -1.0288,0.0387 -1.5285,-0.0781 -1.1105,-0.25948 z m 6.2659,12.35457 c 0.2018,-0.21245 0.7393,-0.24828 1.1941,-0.0793 0.5025,0.18653 0.3585,0.33799 -0.3673,0.38634 -0.6567,0.0438 -1.0288,-0.0947 -0.8268,-0.30683 z m 19.4884,0.006 c -0.6893,-0.11486 -1.5409,-0.47704 -1.8925,-0.80476 -0.662,-0.61724 2.8724,-0.2358 5.9447,0.64175 1.3719,0.39177 1.294,0.44386 -0.6137,0.41029 -1.2017,-0.0224 -2.7491,-0.13245 -3.4385,-0.24731 z M 240.96862,360.42652 c -0.003,-0.1315 0.69214,-0.39097 1.5455,-0.57664 0.85336,-0.18557 1.55769,-0.0957 1.56518,0.19997 0.006,0.29531 -0.68802,0.55491 -1.54554,0.57664 -0.85748,0.0224 -1.56181,-0.0682 -1.56514,-0.19997 z m -2.17672,0.29435 c -0.22077,-0.33767 -0.10399,-0.6214 0.25915,-0.63061 0.36324,-0.01 0.66757,0.26395 0.67624,0.6069 0.006,0.34302 -0.10782,0.62681 -0.25916,0.63059 -0.15133,0.006 -0.4556,-0.2694 -0.67627,-0.60688 z m -24.78942,0.0486 c 1.10503,-0.73926 2.77419,-1.36169 3.70924,-1.38319 l 1.7001,-0.0368 -1.65093,0.91517 c -0.90797,0.50337 -2.57717,1.1258 -3.70923,1.38326 l -2.05835,0.46808 2.0092,-1.34409 z m 27.96469,3.55685 c -0.19997,-0.30587 0.3546,-0.57437 1.23234,-0.59664 1.91091,-0.048 2.07428,0.30331 0.36963,0.79539 -0.68116,0.19677 -1.40203,0.10718 -1.60197,-0.19869 z m 1118.69603,-22.277 c -0.022,-0.95773 1.5048,-0.99027 2.4907,-0.0531 0.4034,0.38352 0.079,0.65042 -0.9232,0.75898 -0.9709,0.10494 -1.5537,-0.15741 -1.5676,-0.70596 z M 246.84354,370.64151 c -0.0224,-0.93769 1.26497,-1.21966 3.72363,-0.81471 1.70714,0.28124 1.84827,0.38995 0.63647,0.49118 -0.85624,0.0717 -2.18395,0.31515 -2.95048,0.54171 -0.77168,0.2278 -1.40079,0.13053 -1.40962,-0.21821 z M 1366.2984,342.79549 c -0.01,-0.34298 0.2649,-0.63068 0.6079,-0.63941 0.343,-0.006 0.6307,0.26492 0.6394,0.60787 0.01,0.34298 -0.2649,0.63077 -0.6079,0.63944 -0.343,0.006 -0.6307,-0.26491 -0.6394,-0.6079 z m 7.9067,10.35868 c 0.7304,-0.45058 1.4306,-0.46827 2.1828,-0.0554 0.9035,0.49608 0.7054,0.61823 -1.0753,0.66335 -1.7807,0.0448 -1.9847,-0.0669 -1.1075,-0.60806 z m -8.7971,3.77166 c -0.01,-0.1347 0.4107,-0.41728 0.9201,-0.62777 0.5095,-0.21052 0.9333,-0.11102 0.9417,0.2214 0.01,0.33221 -0.4056,0.61465 -0.9202,0.62771 -0.5145,0.0128 -0.9383,-0.0867 -0.9416,-0.22141 z m -11.6853,6.78145 c -0.5713,-0.34903 -0.6543,-0.59222 -0.2082,-0.60924 0.4083,-0.016 0.923,0.24796 1.1437,0.58554 0.4981,0.76214 0.2822,0.76761 -0.9355,0.0224 z m -50.7012,12.71122 c 0.5923,-0.17117 1.7147,-0.20541 2.4943,-0.0755 0.7796,0.12958 0.295,0.26972 -1.0769,0.31131 -1.3718,0.0416 -2.0096,-0.0643 -1.4174,-0.23548 z m -7.0136,-0.0192 c -0.01,-0.34301 0.2649,-0.63071 0.6078,-0.63944 0.343,-0.006 0.6308,0.26491 0.6394,0.60786 0.01,0.34302 -0.2649,0.63078 -0.6079,0.63945 -0.3429,0.006 -0.6306,-0.26492 -0.6393,-0.60787 z m -51.3254,1.23432 c 0.4808,-0.5058 1.0019,-0.52433 1.8393,-0.0653 1.0243,0.56119 0.9416,0.64821 -0.6708,0.70568 -1.3413,0.0473 -1.6577,-0.12542 -1.1685,-0.64012 z m 80.9662,-1.51642 c -0.2755,-0.62117 -1.1796,-1.08311 -2.1283,-1.08749 -0.9072,-0.006 -1.285,-0.16414 -0.8393,-0.35578 0.4456,-0.19133 2.0457,-0.19485 3.5557,-0.006 2.0414,0.25339 2.6625,0.57449 2.422,1.25179 -0.1778,0.501 -0.5905,0.9176 -0.917,0.92589 -0.3265,0.006 -0.4274,-0.27003 -0.2239,-0.61839 0.2034,-0.34836 0.096,-0.62646 -0.239,-0.61801 -0.3347,0.006 -0.7307,0.36954 -0.88,0.80233 -0.1843,0.53409 -0.4253,0.43996 -0.7503,-0.29307 z m -996.18,29.11189 c -0.006,-0.34307 0.10814,-0.62677 0.25916,-0.63064 0.15101,-0.006 0.45554,0.26939 0.6762,0.60694 0.22077,0.3376 0.10398,0.6214 -0.25915,0.63064 -0.36318,0.01 -0.66757,-0.26395 -0.67624,-0.60694 z m 904.9815,-16.59616 c 0.7615,-0.50996 3.1988,-0.33057 3.2131,0.23644 0.01,0.1315 -0.9061,0.25788 -2.0211,0.28091 -1.3781,0.0288 -1.7598,-0.13725 -1.192,-0.51738 z m -865.69113,40.28835 c -0.006,-0.15133 0.2694,-0.4556 0.60691,-0.67624 0.33764,-0.22076 0.62143,-0.10398 0.63065,0.25916 0.01,0.36317 -0.26396,0.66751 -0.60694,0.67624 -0.34305,0.006 -0.62678,-0.10814 -0.63062,-0.25916 z m -4.99359,-0.0666 c -0.006,-0.25723 0.68712,-0.52583 1.54089,-0.59676 0.85375,-0.071 1.40361,0.12574 1.22188,0.43711 -0.39933,0.68424 -2.74665,0.81986 -2.76277,0.15965 z m -12.97607,5.10948 c -0.006,-0.31258 0.5937,-0.5838 1.3369,-0.60262 0.74311,-0.0192 1.16089,0.16606 0.92832,0.41059 -0.65697,0.69109 -2.24912,0.8261 -2.26522,0.19197 z m -16.16068,2.54604 c -0.0224,-0.89211 3.54165,-2.0945 5.09822,-1.72003 1.32579,0.31899 1.29677,0.37462 -0.44012,0.84322 -1.02268,0.27579 -2.48595,0.71197 -3.25168,0.96902 -0.76576,0.25724 -1.39865,0.21532 -1.40642,-0.0921 z m -4.99446,-0.0832 c -0.81257,-0.49637 -0.79209,-0.58627 0.14046,-0.61801 0.60006,-0.0224 1.09821,0.24316 1.10688,0.58646 0.0192,0.76057 -0.0512,0.76233 -1.24727,0.032 z m -4.96598,1.04216 c -0.0128,-0.5037 0.39772,-0.92654 0.91223,-0.93956 0.51454,-0.0128 0.94182,0.22684 0.94954,0.53322 0.006,0.30619 -0.40275,0.72913 -0.91224,0.93959 -0.56432,0.23324 -0.93546,0.0224 -0.94953,-0.53325 z m -3.09411,1.03397 c -0.006,-0.34302 0.26492,-0.63078 0.60787,-0.63945 0.34301,-0.006 0.63077,0.26492 0.63944,0.60787 0.006,0.34298 -0.26491,0.63077 -0.60786,0.63944 -0.34299,0.006 -0.63078,-0.26491 -0.63945,-0.60786 z m -11.2098,0.90775 c -0.006,-0.34302 0.24828,-0.63033 0.57107,-0.63852 0.32273,-0.006 0.76739,0.2614 0.98806,0.59901 0.22076,0.3377 -0.0362,0.62498 -0.57107,0.63851 -0.5347,0.0128 -0.97939,-0.25595 -0.98806,-0.599 z M 1314.6236,414.86591 c 0.2022,-0.21244 0.7394,-0.24828 1.1941,-0.0793 0.5026,0.18653 0.3585,0.33806 -0.3673,0.38634 -0.6567,0.0438 -1.0288,-0.0944 -0.8268,-0.30683 z M 302.05704,441.7327 c -0.33851,-0.81947 -0.032,-0.95654 1.78667,-0.79103 1.2079,0.11006 2.19132,0.006 2.1854,-0.22556 -0.006,-0.2342 0.54679,-0.58666 1.22821,-0.78336 0.80533,-0.2326 1.24683,-0.0512 1.26132,0.51927 0.0128,0.48235 -0.60809,0.94106 -1.37836,1.01932 -0.77024,0.0781 -1.82091,0.18557 -2.33484,0.23836 -0.51399,0.0531 -1.25041,0.30267 -1.63672,0.55514 -0.3886,0.25404 -0.88516,0.016 -1.11168,-0.5322 z m -5.00204,1.25631 c -0.40541,-0.38538 0.20188,-1.37421 0.8539,-1.39068 0.28603,-0.006 0.67317,0.35734 0.8603,0.81026 0.31611,0.7655 -1.03742,1.22383 -1.7142,0.58042 z m -4.34209,0.65601 c -0.20541,-0.31418 -0.12158,-0.736 0.18589,-0.93718 0.30778,-0.20093 0.73114,0.0493 0.94077,0.55709 0.41327,1.00063 -0.51637,1.31411 -1.12689,0.38009 z M 1303.3304,419.15169 c -0.01,-0.30427 1.1101,-0.51512 2.4842,-0.46885 1.3741,0.0461 2.5029,0.26651 2.5086,0.48984 0.01,0.22332 -1.1123,0.43413 -2.4843,0.46888 -1.372,0.0349 -2.5009,-0.18589 -2.5085,-0.48987 z M 288.13937,445.02662 c -0.65973,-0.385 -0.61113,-0.58432 0.22684,-0.93054 1.27198,-0.52535 1.99055,-0.0288 1.18499,0.81836 -0.31483,0.33118 -0.95024,0.38163 -1.41199,0.1123 z m -3.83392,0.34823 c -0.0128,-0.51457 0.0867,-0.93828 0.2214,-0.9417 0.1347,-0.006 0.41728,0.41068 0.62768,0.92013 0.21052,0.50958 0.11102,0.93328 -0.22141,0.9417 -0.3322,0.006 -0.61474,-0.40566 -0.62773,-0.92013 z m -5.30103,1.03326 c -0.47189,-0.72186 1.11249,-1.06846 2.8154,-0.61593 0.86389,0.22941 1.29137,0.47592 0.94992,0.54743 -2.07127,0.43343 -3.50968,0.45957 -3.76532,0.0685 z m -6.4913,1.51607 c -0.006,-0.30619 0.40282,-0.7291 0.9123,-0.93959 0.56429,-0.23324 0.93546,-0.0224 0.94954,0.53329 0.0128,0.50375 -0.39773,0.92653 -0.91227,0.93955 -0.5145,0.0128 -0.94182,-0.22684 -0.94957,-0.53325 z m -3.44524,0.93738 c -1.21826,-0.91163 -1.21807,-0.92222 0.016,-0.79609 0.68824,0.0704 1.62412,-0.11902 2.07978,-0.4208 0.67212,-0.44523 0.70113,-0.29595 0.15422,0.79168 -0.80451,1.59922 -0.70638,1.58063 -2.25044,0.42521 z m -3.71432,0.39788 c -0.21085,-0.32289 0.1942,-0.60169 0.90039,-0.61957 1.50586,-0.0381 1.66647,0.30491 0.38992,0.83221 -0.49864,0.20604 -1.07925,0.11006 -1.29031,-0.21245 z m -2.77266,0.73869 c -0.0224,-0.84536 1.07361,-1.39838 1.49434,-0.75465 0.20125,0.30779 -0.0499,0.73114 -0.55709,0.94077 -0.50763,0.20956 -0.92935,0.12574 -0.93725,-0.18589 z m -0.56883,2.18137 c -0.44623,-0.51089 -0.52427,-0.92282 -0.17629,-0.93159 0.34304,-0.006 0.98367,0.39632 1.42373,0.90001 0.44626,0.51079 0.52429,0.92279 0.17629,0.93159 -0.34302,0.006 -0.98361,-0.39635 -1.4237,-0.90001 z M 1301.4693,426.65533 c -0.6286,-0.61126 -1.4091,-0.93741 -1.7345,-0.72481 -0.3253,0.21244 -0.5986,0.1059 -0.6072,-0.23708 -0.029,-1.10797 1.0004,-1.32909 2.2272,-0.47886 0.769,0.53299 1.5533,0.62604 2.1964,0.26075 0.6471,-0.36768 1.4242,-0.26811 2.2003,0.2822 1.1301,0.80108 1.1122,0.83067 -0.3062,0.51041 -0.9549,-0.21565 -1.7488,-0.006 -2.1695,0.57942 -0.5701,0.79004 -0.8244,0.76304 -1.8065,-0.19197 z M 258.99459,454.12797 c 0.0349,-1.18297 1.02412,-3.19841 1.08523,-2.21163 0.032,0.51406 -0.20349,1.36246 -0.52289,1.88538 -0.31963,0.52292 -0.57251,0.66971 -0.56234,0.32625 z M 1307.9603,429.48938 c -0.01,-0.15133 0.269,-0.45554 0.6069,-0.67617 0.3376,-0.22077 0.6214,-0.10431 0.6306,0.25915 0.01,0.3632 -0.264,0.66757 -0.607,0.67624 -0.343,0.006 -0.6267,-0.10782 -0.6305,-0.25916 z M 237.80921,457.5092 c -0.01,-0.36324 0.26396,-0.6676 0.60694,-0.67627 0.34301,-0.006 0.62678,0.10782 0.63061,0.25915 0.003,0.15134 -0.26939,0.45554 -0.60693,0.67618 -0.33764,0.22076 -0.62144,0.10398 -0.63062,-0.25916 z M 1295.9692,433.47562 c -0.24,-0.58105 -0.019,-0.72528 0.723,-0.46901 0.8936,0.30907 0.9383,0.21629 0.2713,-0.56416 -0.9981,-1.16787 -0.5202,-1.7279 1.1417,-1.33795 0.9961,0.23356 1.0949,0.43142 0.4549,0.91082 -0.5835,0.43712 -0.4181,0.51419 0.5782,0.2694 0.7675,-0.18845 1.4018,-0.0886 1.4097,0.22236 0.01,0.31099 -0.058,0.56708 -0.1456,0.56931 -0.088,0 -1.0435,0.28188 -2.1234,0.62128 -1.4842,0.46657 -2.0478,0.4125 -2.3098,-0.22173 z M 221.67579,461.13364 c -0.006,-0.27003 0.54778,-0.54742 1.2325,-0.61644 0.68468,-0.0691 1.25156,0.13758 1.25972,0.45935 0.006,0.32171 -0.54647,0.5991 -1.2325,0.61651 -0.68603,0.0192 -1.25288,-0.18941 -1.25972,-0.45942 z m -2.48215,0.55409 c -0.006,-0.34295 0.40518,-0.6343 0.91969,-0.64735 0.51447,-0.0128 0.94256,0.25724 0.95123,0.60003 0.006,0.34298 -0.40515,0.63426 -0.91968,0.64728 -0.51451,0.0128 -0.94257,-0.25692 -0.95124,-0.59996 z m 65.33984,23.5189 c 0.42434,-0.18396 1.12598,-0.20156 1.55913,-0.0394 0.43311,0.16189 0.0861,0.31259 -0.77165,0.33428 -0.85749,0.0224 -1.21189,-0.11102 -0.78748,-0.29467 z m -11.29213,3.8193 c -0.22076,-0.33761 0.0362,-0.62495 0.57104,-0.63848 0.5347,-0.0128 0.97936,0.25595 0.98806,0.599 0.006,0.34308 -0.24828,0.63036 -0.57107,0.63848 -0.32279,0.006 -0.76739,-0.26139 -0.98803,-0.599 z m -13.34973,9.28926 c 0.41785,-0.18173 1.25954,-0.2134 1.87035,-0.0704 0.61074,0.1427 0.26875,0.29115 -0.75984,0.33009 -1.02873,0.0384 -1.52848,-0.0781 -1.11051,-0.2598 z m 18.28638,7.00484 c -1.70951,-0.40083 -1.3162,-1.27223 0.44319,-0.98188 0.86165,0.14237 1.57295,0.50651 1.58063,0.80956 0.016,0.57613 -0.21756,0.59583 -2.02382,0.17245 z m 5.33299,1.12996 c -1.09697,-0.41069 -1.01375,-1.43317 0.11902,-1.46178 0.51448,-0.0128 0.94608,0.39725 0.95911,0.91172 0.0128,0.51454 -0.047,0.91515 -0.13342,0.89022 -0.0864,-0.0256 -0.51153,-0.17789 -0.94471,-0.34016 z m -13.21046,1.99573 c -0.006,-0.34299 0.10783,-0.62678 0.25916,-0.63059 0.15102,-0.006 0.45561,0.2694 0.67624,0.60694 0.22076,0.33764 0.10398,0.62143 -0.25916,0.63058 -0.36323,0.01 -0.66753,-0.26395 -0.67627,-0.60693 z M 1280.1229,519.2942 c 0.4244,-0.18397 1.126,-0.20156 1.5591,-0.0394 0.4332,0.16189 0.086,0.31259 -0.7716,0.33431 -0.8575,0.0224 -1.2119,-0.11102 -0.7875,-0.29499 z m -7.7659,0.85679 c 0.2019,-0.21245 0.7393,-0.24828 1.1941,-0.0793 0.5025,0.18653 0.3585,0.33799 -0.3672,0.38633 -0.6568,0.0438 -1.0289,-0.0944 -0.8269,-0.30682 z M 203.42963,547.20376 c 0.20189,-0.21244 0.73933,-0.24827 1.19407,-0.0793 0.50254,0.18653 0.3585,0.33802 -0.36726,0.38636 -0.65673,0.0438 -1.02879,-0.0944 -0.82681,-0.30682 z m 1060.66187,-26.4189 c -0.01,-0.25787 1.3007,-0.55197 2.905,-0.65333 1.6043,-0.1011 2.796,-0.0566 2.6482,0.0986 -0.4986,0.52432 -5.5412,1.0283 -5.5532,0.55498 z M 207.1723,547.65438 c -1.86276,-0.59779 -0.53902,-1.20399 2.88921,-1.32305 2.50403,-0.087 3.80762,0.13342 4.03414,0.68165 0.25084,0.60726 -0.47592,0.82069 -2.90111,0.85199 -1.77967,0.0224 -3.58971,-0.072 -4.02224,-0.21053 z m 4.30005,3.46713 c -0.006,-0.34302 0.42172,-0.63471 0.95648,-0.64825 0.53475,-0.0128 0.80594,0.26044 0.60265,0.60883 -0.20349,0.34833 -0.63375,0.64005 -0.95652,0.64821 -0.32276,0.006 -0.59391,-0.26587 -0.60261,-0.60879 z m 29.67733,7.55537 c 0.59628,-0.17213 1.57848,-0.19709 2.18273,-0.055 0.60422,0.14174 0.11646,0.28251 -1.08413,0.31291 -1.20054,0.032 -1.69492,-0.0854 -1.0986,-0.25756 z m 865.78322,8.7163 c 0.2019,-0.21244 0.7393,-0.24828 1.1941,-0.0793 0.5025,0.18653 0.3585,0.33806 -0.3673,0.38637 -0.6567,0.0438 -1.0288,-0.0944 -0.8268,-0.30683 z m 45.9885,-0.85979 c -0.016,-0.666 8.2762,-0.80985 10.916,-0.18941 1.2518,0.29435 -0.2601,0.49253 -4.5094,0.59136 -3.516,0.0816 -6.3989,-0.0992 -6.4066,-0.40205 z m -10.2822,0.32305 c 0.2067,-0.35409 0.6894,-0.46066 1.0728,-0.23676 0.4487,0.26203 0.546,0.0406 0.273,-0.62079 -0.4655,-1.12685 1.0383,-1.52413 1.7349,-0.45829 0.2207,0.33767 1.4378,0.61992 2.7049,0.62741 l 2.3036,0.0128 -2.4815,0.57916 c -3.5172,0.82073 -6.056,0.86421 -5.6077,0.096 z m -15.7339,0.65531 c 0.2019,-0.21244 0.7393,-0.24828 1.194,-0.0793 0.5026,0.18652 0.3586,0.33799 -0.3672,0.38633 -0.6567,0.0438 -1.0288,-0.0944 -0.8268,-0.30683 z m 174.4612,-4.03823 c -0.01,-0.34302 0.2649,-0.63078 0.6079,-0.63945 0.343,-0.006 0.6307,0.26492 0.6394,0.60787 0.01,0.34301 -0.2649,0.63077 -0.6078,0.63944 -0.343,0.006 -0.6308,-0.26491 -0.6395,-0.60786 z M 288.35626,309.53924 c -0.006,-0.34298 -0.27963,-0.61698 -0.60262,-0.60879 -0.32273,0.006 -0.75315,0.29979 -0.95648,0.64831 -0.20316,0.34832 0.0675,0.62226 0.60262,0.60873 0.53476,-0.0128 0.96525,-0.30523 0.95648,-0.64825 z m 2.55778,2.43143 c -0.006,-0.34298 -0.43676,-0.61298 -0.9513,-0.59993 -0.5145,0.0128 -0.92835,0.30427 -0.91968,0.64729 0.006,0.34298 0.43676,0.61298 0.95123,0.59996 0.51457,-0.0128 0.92842,-0.30427 0.91975,-0.64732 z m -8.65653,3.16639 c -0.006,-0.28828 0.25211,-0.36954 0.57638,-0.18013 0.32433,0.1894 0.75872,0.0541 0.96531,-0.29947 0.52455,-0.89876 -0.44668,-0.77949 -2.87734,0.35335 -1.998,0.93126 -2.01154,0.9614 -0.3632,0.8092 0.94169,-0.087 1.70614,-0.39411 1.69885,-0.68254 z m 951.23539,7.57623 c -0.01,-0.15133 -0.2876,-0.26779 -0.6306,-0.25916 -0.343,0.006 -0.6161,0.31291 -0.6069,0.67624 0.01,0.36327 0.2931,0.47992 0.6306,0.25916 0.3376,-0.22076 0.6107,-0.52494 0.6069,-0.67618 z m -978.6596,32.54715 c 0.16797,-0.17661 -0.69153,-0.36314 -1.91001,-0.41429 -1.43349,-0.0605 -2.06526,0.13693 -1.78975,0.55846 0.4086,0.62524 3.06688,0.52167 3.69976,-0.14429 z m -8.37328,0.22333 c -0.006,-0.29563 -0.43049,-0.36509 -0.94,-0.15486 -0.50949,0.21053 -0.92027,0.62447 -0.91278,0.92001 0.006,0.29563 0.43049,0.36519 0.93997,0.15485 0.50952,-0.21052 0.92026,-0.62447 0.91281,-0.92 z m 16.87816,1.14332 c -0.006,-0.15133 -0.44456,-0.26395 -0.97926,-0.25019 -0.53476,0.0128 -0.78879,0.30523 -0.56451,0.64846 0.37056,0.56701 1.56041,0.26012 1.54377,-0.39807 z m 2.59195,0.41568 c -0.45365,-0.13854 -1.11389,0.0518 -1.46718,0.42364 -0.45103,0.47445 -0.2054,0.54951 0.82498,0.2518 0.83769,-0.24188 1.11326,-0.53175 0.6422,-0.67563 z m 8.15995,5.24062 c -0.01,-0.36326 -0.29308,-0.47988 -0.63065,-0.25915 -0.33764,0.22076 -0.61075,0.52497 -0.60694,0.67617 0.006,0.15134 0.28763,0.26812 0.63065,0.25916 0.34298,-0.006 0.61609,-0.31291 0.60694,-0.67624 z M 1353.6431,335.89783 c -0.01,-0.15133 -0.2877,-0.26779 -0.6306,-0.25915 -0.343,0.006 -0.6161,0.3129 -0.6069,0.67617 0.01,0.36327 0.293,0.47992 0.6305,0.25916 0.3377,-0.22077 0.6108,-0.52503 0.607,-0.67624 z m -4.884,4.28252 c -0.01,-0.29915 -0.5787,-0.67653 -1.2693,-0.83852 -0.6905,-0.16221 -1.2487,-0.0224 -1.2403,0.30747 0.01,0.33114 -0.3138,0.41001 -0.716,0.17533 -0.4022,-0.23484 -0.5634,-0.16989 -0.3582,0.14398 0.4834,0.73974 3.6019,0.92397 3.5838,0.2118 z m 4.9124,0.50446 c 0.5927,-0.39699 0.3042,-0.61891 -1.012,-0.77818 -2.2065,-0.26715 -3.4194,0.0928 -2.9165,0.86034 0.4603,0.70439 2.828,0.65487 3.9285,-0.0819 z M 304.5587,370.28573 c -0.22077,-0.3376 -0.73534,-0.60111 -1.14368,-0.5855 -0.44614,0.0192 -0.36301,0.26012 0.20828,0.60918 1.21769,0.74391 1.43362,0.7385 0.93546,-0.0224 z m 1033.3318,-20.33771 c -0.4547,-0.16893 -0.9921,-0.1331 -1.194,0.0794 -0.2019,0.21244 0.1702,0.35053 0.8267,0.30683 0.7258,-0.048 0.8699,-0.19997 0.3674,-0.38634 z m 11.1626,1.84673 c 0.5445,-0.22332 0.2268,-0.3824 -0.7703,-0.38611 -1.3017,-0.006 -1.6026,0.2214 -1.2926,0.97184 0.2223,0.53805 0.5688,0.71172 0.7702,0.38617 0.2013,-0.3257 0.7831,-0.76304 1.2927,-0.9719 z m -122.8347,24.06918 c -0.4547,-0.16893 -0.992,-0.13309 -1.1941,0.0794 -0.2022,0.21245 0.1703,0.3506 0.8269,0.30683 0.7258,-0.048 0.8698,-0.19997 0.3672,-0.3864 z m -13.4926,-0.93539 c -0.2124,-0.20189 -0.3506,0.17021 -0.3068,0.82684 0.049,0.72576 0.2,0.86977 0.3863,0.36723 0.169,-0.45477 0.1331,-0.99209 -0.079,-1.19407 z m 5.2255,1.61794 c 0.7325,-0.4901 0.7022,-0.73607 -0.1961,-1.59017 -0.5846,-0.55568 -1.0552,-0.70964 -1.0459,-0.34212 0.01,0.36749 -0.4041,0.6788 -0.9186,0.69182 -0.9739,0.0224 -1.2186,0.7689 -0.4828,1.4683 0.583,0.55428 1.6064,0.46607 2.6435,-0.2278 z m 4.4603,1.46695 c -0.013,-0.47784 0.4346,-1.05739 0.9928,-1.28791 1.383,-0.57123 0.8714,-0.91025 -1.9384,-1.2842 l -2.3758,-0.31611 1.1825,1.89088 c 1.2542,2.00565 2.1752,2.43508 2.1389,0.99737 z m 6.8254,0.78755 c -0.9297,-0.29339 -1.3816,0.36083 -0.8311,1.20322 0.349,0.53406 0.6011,0.49809 0.9751,-0.13918 0.2962,-0.50487 0.2367,-0.9439 -0.144,-1.06411 z m -77.8036,5.77836 c -0.01,-0.25724 -1.1377,-0.50302 -2.51,-0.54621 -1.3721,-0.0429 -2.4879,0.19548 -2.4795,0.53075 0.01,0.33512 1.138,0.581 2.51,0.54622 1.372,-0.0349 2.4879,-0.27356 2.4795,-0.53076 z m 13.7344,0.0835 c -0.01,-0.36326 -0.2931,-0.47985 -0.6306,-0.25915 -0.3377,0.22076 -0.6108,0.52493 -0.6069,0.67617 0.01,0.15134 0.2876,0.2678 0.6305,0.25916 0.343,-0.006 0.6161,-0.31291 0.607,-0.67627 z m 8.7488,2.53398 c 0.1395,-0.12574 -1.5458,-0.15006 -3.7457,-0.0537 -3.0613,0.13406 -3.5582,0.26971 -2.1175,0.57907 1.7015,0.36512 5.2244,0.0493 5.8632,-0.52532 z m 4.1788,2.79208 c 0.2032,-0.34839 -0.068,-0.62233 -0.6026,-0.6088 -0.5347,0.0128 -0.9651,0.30523 -0.9565,0.64825 0.01,0.34298 0.28,0.61695 0.6027,0.60882 0.3228,-0.006 0.7532,-0.29979 0.9564,-0.64827 z m -810.56521,35.06484 c -0.45477,-0.16893 -0.99209,-0.1331 -1.1941,0.0793 -0.20189,0.21244 0.17021,0.35063 0.82687,0.30682 0.7258,-0.048 0.86977,-0.19964 0.36723,-0.38627 z m 1.11956,9.30353 c -0.21245,-0.20189 -0.3506,0.17021 -0.30683,0.82684 0.0486,0.72579 0.19965,0.86977 0.38637,0.36726 0.16893,-0.4548 0.13309,-0.99209 -0.0793,-1.1941 z m -49.55528,4.79263 c -0.01,-0.36326 -0.29307,-0.47991 -0.63058,-0.25915 -0.33767,0.22076 -0.61081,0.52497 -0.60694,0.67617 0.006,0.15134 0.28763,0.26812 0.63058,0.25916 0.34302,-0.006 0.61612,-0.31291 0.60694,-0.67624 z m -3.7261,0.71835 c -0.01,-0.36324 -0.29307,-0.47992 -0.63058,-0.25916 -0.33764,0.22076 -0.61074,0.52503 -0.60694,0.67627 0.006,0.15134 0.28764,0.2678 0.63059,0.25916 0.34304,-0.006 0.61615,-0.31291 0.60693,-0.67627 z m 15.00696,1.18031 c -0.006,-0.15133 -0.28763,-0.26779 -0.63058,-0.25915 -0.34305,0.006 -0.61615,0.3129 -0.60694,0.67627 0.01,0.36323 0.29307,0.47988 0.63058,0.25915 0.33764,-0.22076 0.61075,-0.52496 0.60694,-0.67617 z m -12.99161,1.63691 c 0.12158,-1.42373 -0.29275,-3.1691 -0.88881,-3.745 -0.41411,-0.39987 -0.46911,-0.0224 -0.16062,1.10321 0.38096,1.39035 0.28507,1.64612 -0.5106,1.36361 -0.69995,-0.2486 -0.94352,0.006 -0.85355,0.90205 0.12989,1.289 2.30665,1.62821 2.4137,0.37613 z m -47.20873,11.48205 c -0.006,-0.25532 -0.70993,-0.31259 -1.56329,-0.1267 -1.00307,0.2182 -1.55872,0.0541 -1.57183,-0.46277 -0.01,-0.44019 -0.19581,-0.61542 -0.41082,-0.38941 -0.716,0.75325 1.10753,2.15097 2.3415,1.79468 0.66891,-0.19293 1.21093,-0.56013 1.20444,-0.81558 z m -5.43608,0.95859 c -0.43318,-0.1619 -1.13472,-0.1443 -1.55913,0.0394 -0.42432,0.18397 -0.0701,0.31643 0.78751,0.29499 0.85759,-0.0224 1.20473,-0.17213 0.77162,-0.33431 z m 30.54502,27.56629 c 0.0224,-0.62466 0.0963,-0.62646 0.36384,-0.01 0.18397,0.42438 0.60806,0.7647 0.94276,0.75623 0.33466,-0.006 0.45311,-0.25308 0.26331,-0.54362 -0.35603,-0.54475 5.31073,-1.46312 9.82613,-1.59241 1.40726,-0.0419 3.19246,-0.26012 3.96689,-0.48897 1.25378,-0.37021 1.29524,-0.49397 0.37837,-1.12941 -0.66421,-0.46034 -2.12208,-0.54545 -4.10683,-0.23964 -1.69236,0.26075 -3.22634,0.24603 -3.40887,-0.0336 -0.18237,-0.27931 -1.57807,-0.47608 -3.10134,-0.43753 -1.52326,0.0384 -2.77585,-0.17597 -2.78347,-0.47723 -0.006,-0.30107 -0.92295,-0.40831 -2.03415,-0.23836 -1.11121,0.16989 -3.14037,0.43625 -4.50933,0.59171 -1.36898,0.1555 -2.90626,0.44172 -3.41619,0.63615 -0.50984,0.19421 -2.57352,0.56586 -4.58586,0.8254 -5.60894,0.7234 -6.49561,1.71974 -1.43678,1.61442 2.55932,-0.0528 4.20352,-0.34654 4.19335,-0.74797 -0.01,-0.36327 0.33168,-0.45714 0.75734,-0.20861 0.42578,0.2486 1.90349,0.38253 3.2838,0.29787 2.1247,-0.13022 2.27261,-0.0669 0.96397,0.41497 -1.40089,0.51547 -1.32644,0.56912 0.79452,0.57175 1.28718,0 2.34732,0.28379 2.35609,0.62667 0.0224,0.91252 1.25774,0.7323 1.29252,-0.18876 z m 9.95836,0.90682 c -0.016,-0.59158 -1.88928,-0.84248 -2.20846,-0.29563 -0.1942,0.33316 0.22429,0.5911 0.93066,0.57325 0.70622,-0.0192 1.28126,-0.1427 1.2778,-0.27771 z m 8.23558,0.23452 c -0.45477,-0.16893 -0.99212,-0.13309 -1.1941,0.0794 -0.20221,0.21245 0.17021,0.3506 0.82684,0.30683 0.72576,-0.048 0.86977,-0.19997 0.36726,-0.38634 z m 4.57117,0.31067 c -0.22076,-0.33761 -0.82216,-0.60326 -1.33667,-0.5902 -0.51447,0.0128 -0.75491,0.29979 -0.53424,0.63755 0.22076,0.33764 0.82216,0.60326 1.33664,0.59024 0.51447,-0.0128 0.75491,-0.29979 0.53427,-0.63759 z m -17.63618,1.26817 c -0.45477,-0.16893 -0.99205,-0.13309 -1.19407,0.0794 -0.20188,0.21244 0.17021,0.35053 0.82684,0.30683 0.72577,-0.048 0.86977,-0.19997 0.36723,-0.38637 z m -18.96946,7.14684 c 0.20317,-0.34846 0.089,-0.62636 -0.25403,-0.61769 -0.34302,0.006 -0.79002,0.30075 -0.99325,0.64923 -0.20316,0.34836 -0.0889,0.6263 0.25404,0.6176 0.34308,-0.006 0.79001,-0.30075 0.99331,-0.64914 z m 6.97279,0.88158 c 0.2326,-0.24444 -0.18525,-0.42937 -0.92842,-0.41053 -0.74321,0.0192 -1.28987,-0.31546 -1.21487,-0.74249 0.0902,-0.51502 -0.49224,-0.69003 -1.72931,-0.51963 -2.59445,0.35754 -2.62302,0.58768 -0.19005,1.52886 2.21227,0.85573 3.34747,0.89598 4.06249,0.14366 z m 19.96894,5.14499 c 0.30395,-0.26523 0.0848,-0.47019 -0.48686,-0.45573 -0.5778,0.016 -1.0229,0.51095 -1.00227,1.11748 0.0224,0.62268 0.23036,0.81832 0.48686,0.45566 0.24732,-0.34947 0.69832,-0.85227 1.00227,-1.11741 z m 12.24918,1.40617 c -0.0128,-0.51457 -0.47906,-0.92401 -1.03551,-0.9099 -0.82866,0.0224 -0.86702,0.19133 -0.2118,0.94144 0.44008,0.50369 0.90602,0.91313 1.03547,0.9099 0.12958,-0.006 0.22492,-0.42697 0.21181,-0.94144 z m -31.23294,3.97975 c -0.45439,-0.4654 -0.96112,-0.6351 -1.12622,-0.37713 -0.16509,0.25788 -0.71703,0.63993 -1.22657,0.84873 -0.50958,0.20892 0,0.37862 1.12618,0.37718 1.7231,0 1.92003,-0.13854 1.22661,-0.84878 z m 4.51809,0.72695 c -1.84264,-0.41737 -2.51533,-0.0688 -1.2699,0.65809 0.48088,0.2806 1.31632,0.32728 1.85665,0.10367 0.7536,-0.31163 0.61685,-0.48914 -0.58675,-0.7618 z m 62.85321,-1.29163 c -0.21437,-0.2038 -0.70929,0.29339 -1.09982,1.1051 -0.67892,1.41058 -0.66178,1.42686 0.38973,0.37043 0.60486,-0.6078 0.92445,-1.27175 0.71009,-1.47553 z m -13.20963,2.55711 c -0.22076,-0.3377 -0.525,-0.61081 -0.67621,-0.60694 -0.15133,0.006 -0.26779,0.28763 -0.25915,0.63055 0.006,0.34302 0.31291,0.61612 0.67624,0.60697 0.36326,-0.01 0.47985,-0.29307 0.25915,-0.63058 z m -8.71524,0.84456 c -0.22077,-0.33764 -0.73534,-0.60108 -1.14368,-0.58556 -0.44614,0.0192 -0.36308,0.26011 0.20828,0.60924 1.21769,0.74394 1.43359,0.73847 0.93546,-0.0224 z m -37.73051,0.95491 c -0.006,-0.34298 -0.31291,-0.61612 -0.67624,-0.60697 -0.36327,0.01 -0.47986,0.29307 -0.25916,0.63068 0.22077,0.33761 0.52494,0.61075 0.67618,0.60684 0.15133,-0.006 0.26779,-0.28763 0.25915,-0.63055 z m 14.87559,2.33251 c 0.28923,0.16893 3.60675,0.38701 7.37214,0.48481 5.07735,0.13182 6.35861,0.0256 4.95913,-0.41039 -1.03787,-0.3236 -3.4344,-0.69902 -5.3255,-0.83426 -1.89118,-0.13534 -4.38433,-0.51556 -5.54023,-0.84514 -1.15606,-0.32958 -3.83216,-0.65733 -5.94687,-0.72823 -2.11482,-0.071 -3.84614,-0.16925 -3.84729,-0.21852 0,-0.0493 -1.33629,-0.0937 -2.96677,-0.0989 -1.63042,-0.006 -2.95944,0.18781 -2.95336,0.42896 0.016,0.63534 4.35575,1.62612 6.90441,1.57647 1.20066,-0.0224 2.89407,0.31066 3.76302,0.74262 0.99877,0.4964 1.8514,0.56644 2.31766,0.19037 0.40575,-0.32708 0.97436,-0.45656 1.26366,-0.28795 z M 1342.6102,487.11835 c -0.4548,-0.16894 -0.9922,-0.1331 -1.1941,0.0793 -0.2019,0.21245 0.1702,0.3506 0.8268,0.30683 0.7258,-0.048 0.8698,-0.19965 0.3673,-0.38633 z M 296.1498,514.22651 c -0.4548,-0.16893 -0.99212,-0.1331 -1.19413,0.0793 -0.20189,0.21245 0.17021,0.35063 0.82683,0.30683 0.7258,-0.048 0.86978,-0.19996 0.3673,-0.38633 z m -24.31816,5.3966 c -0.0192,-0.72241 -4.79939,-0.7115 -5.22146,0.0128 -0.15966,0.27356 0.95325,0.52027 2.47325,0.54798 1.52,0.0288 2.75669,-0.22429 2.74821,-0.55985 z m 977.74846,-0.69867 c 0.4333,-0.45583 -5.3285,-0.25276 -8.15,0.28731 -1.2808,0.24508 -2.3241,0.63366 -2.3183,0.86315 0.013,0.46351 9.9749,-0.63151 10.4683,-1.15056 z m -11.3775,1.08411 c 0.2426,-0.255 -5.0906,-0.0381 -7.1977,0.29275 -0.1708,0.0256 0.057,0.26971 0.5081,0.53962 0.8041,0.48209 6.062,-0.17213 6.6896,-0.83253 z m 69.2643,0.27899 c -0.2108,-0.32289 -0.7916,-0.41859 -1.2903,-0.21245 -1.2766,0.52734 -1.1159,0.87026 0.3899,0.83219 0.7063,-0.0192 1.1114,-0.2966 0.9004,-0.61958 z m -851.43864,52.74303 c -0.006,-0.33226 -0.43215,-0.43189 -0.94164,-0.2214 -0.50958,0.21052 -0.92362,0.49291 -0.92016,0.62773 0.006,0.13502 0.42713,0.23452 0.9416,0.22141 0.51457,-0.0128 0.92861,-0.29563 0.9202,-0.62777 z m 221.04516,-1.8696 c -0.19677,-0.68149 -0.60563,-1.23279 -0.90855,-1.22514 -0.64437,0.016 -0.70296,1.49258 -0.0825,2.08224 0.83826,0.79692 1.34275,0.36068 0.9911,-0.8571 z M 1293.91,560.11654 c -0.4548,-0.16893 -0.9921,-0.13309 -1.1941,0.0793 -0.2019,0.21245 0.1702,0.35057 0.8268,0.30683 0.7258,-0.048 0.8698,-0.19965 0.3673,-0.38634 z m -44.6652,2.80475 c -0.2208,-0.33761 -0.5249,-0.61075 -0.6762,-0.60694 -0.1513,0.006 -0.2678,0.28763 -0.2591,0.63065 0.01,0.34298 0.3129,0.61612 0.6762,0.60694 0.3633,-0.01 0.4799,-0.29307 0.2592,-0.63065 z m 4.5603,3.21943 c -0.2329,-0.2214 -2.6028,-0.4454 -5.2667,-0.4979 -4.7049,-0.0928 -23.393,-0.21277 -26.2189,-0.16861 -0.772,0.0128 -1.4098,-0.22557 -1.4174,-0.52833 -0.01,-0.31771 -1.0399,-0.29243 -2.4413,0.0617 -1.7242,0.43359 -3.1555,0.37402 -4.9411,-0.20573 -1.3826,-0.44879 -2.6172,-0.70717 -2.7437,-0.57424 -0.3912,0.41155 -9.1742,0.46764 -24.2107,0.15486 -0.5151,-0.01 -1.3491,-0.32177 -1.8534,-0.69122 -0.6592,-0.48311 -0.796,-0.48116 -0.487,0.006 0.278,0.43881 -0.2246,0.67212 -1.4222,0.66005 -1.0186,-0.01 -1.8588,-0.26171 -1.8671,-0.55898 -0.01,-0.29723 -0.5726,-0.37948 -1.2541,-0.183 -0.6815,0.19708 -1.2447,0.13693 -1.2516,-0.13342 -0.022,-0.83378 -7.5509,-0.1139 -8.0674,0.7712 -0.3339,0.57216 -0.6037,0.61081 -0.9171,0.13117 -0.5616,-0.85928 -4.118,-0.80812 -4.096,0.0585 0.01,0.44332 -0.3638,0.45436 -1.1968,0.0368 -0.8836,-0.44447 -1.2815,-0.39801 -1.4646,0.17117 -0.1798,0.55824 -0.6424,0.45173 -1.6199,-0.37274 -0.8409,-0.70919 -1.3611,-0.86024 -1.3492,-0.39177 0.013,0.49345 -0.4519,0.62578 -1.3167,0.37523 -0.892,-0.25852 -1.19,-0.16349 -0.8965,0.28539 0.2544,0.38883 0.094,0.56321 -0.3794,0.41328 -0.4505,-0.1427 -2.507,-0.37933 -4.5701,-0.5259 -2.063,-0.14653 -4.5955,-0.3473 -5.6277,-0.44597 -1.8026,-0.17245 -5.2685,1.41544 -5.2436,2.40222 0.01,0.26172 -0.6953,0.17469 -1.5601,-0.19293 -1.22,-0.51905 -1.4211,-0.86033 -0.8981,-1.52403 0.4538,-0.57587 0.459,-0.84968 0.016,-0.83852 -0.3619,0.01 -0.809,0.53758 -0.9934,1.17427 -0.2908,1.00345 -0.8951,1.1432 -4.5398,1.04955 -9.934,-0.25531 -29.7445,0.61587 -30.159,1.32628 -0.5188,0.88887 -6.2464,0.82335 -6.8356,-0.0781 -0.2867,-0.43877 -0.8518,-0.39603 -1.7867,0.13534 -0.8739,0.49655 -5.3567,0.9336 -12.4212,1.21096 -6.0796,0.239 -11.3781,0.64607 -11.7744,0.90507 -0.3963,0.25883 -0.7281,0.17373 -0.7373,-0.18941 -0.022,-0.81673 -3.5539,-0.79222 -4.0326,0.0288 -0.2134,0.36548 -1.1069,0.35227 -2.3134,-0.0342 -1.4182,-0.45448 -2.2641,-0.43295 -3.0371,0.0774 -0.5893,0.38902 -1.2512,0.53652 -1.4709,0.32765 -0.5286,-0.5026 -33.4865,0.64854 -34.3176,1.19859 -1.0064,0.66593 -2.1599,0.75158 -2.5286,0.18749 -0.1846,-0.28252 -1.2374,-0.23037 -2.3393,0.11582 -1.301,0.40902 -2.082,0.41263 -2.2275,0.01 -0.2915,-0.80614 -1.9959,-0.76388 -1.9752,0.0499 0.01,0.34304 -0.2816,0.63122 -0.6447,0.64037 -0.3632,0.01 -0.5028,-0.2534 -0.31,-0.58352 0.3802,-0.65167 -9.1212,-0.207 -10.1658,0.4756 -0.3334,0.21788 -0.7212,0.0781 -0.8617,-0.31035 -0.1833,-0.50689 -0.6336,-0.45688 -1.5934,0.17693 -1.1751,0.77587 -1.4457,0.74353 -2.22334,-0.26523 -0.66764,-0.86616 -0.99977,-0.95261 -1.3505,-0.35165 -0.37123,0.63621 -0.57033,0.63598 -0.98668,0 -0.4159,-0.63635 -0.85192,-0.63721 -2.15295,-0.006 -0.89732,0.43656 -1.96655,0.59586 -2.37592,0.35414 -1.61263,-0.95225 -8.56756,-1.33091 -8.54561,-0.46533 0.01,0.4017 -0.34759,0.36564 -0.9305,-0.0937 -0.5457,-0.4301 -1.40783,-0.53671 -2.03457,-0.2518 -1.4644,0.66632 -3.43008,0.74081 -4.41299,0.16733 -0.44306,-0.25851 -1.13783,-0.18013 -1.5439,0.1747 -0.7138,0.62351 -1.42891,0.62044 -7.14805,-0.032 -1.82776,-0.20796 -2.65402,-0.0739 -2.64132,0.42854 0.0128,0.49326 -0.24028,0.53987 -0.77645,0.14333 -0.43723,-0.32333 -1.91836,-0.59548 -3.29154,-0.6047 -1.37311,-0.01 -5.44696,-0.0861 -9.05298,-0.17085 -3.60599,-0.0848 -10.76962,-0.19228 -15.91919,-0.239 -5.14953,-0.047 -10.90927,-0.16477 -12.79948,-0.26203 -3.8122,-0.19677 -13.0708,-0.17309 -14.04011,0.0355 -0.34139,0.0736 -0.82643,0.1075 -1.07778,0.0752 -1.3916,-0.17725 -9.72966,-0.47813 -10.78699,-0.38941 -0.68507,0.0573 -2.36856,0.11166 -3.74126,0.1203 -1.37266,0.006 -3.89855,0.0688 -5.61298,0.13406 -1.71453,0.0646 -3.39853,0.1011 -3.74228,0.0797 -0.34372,-0.0224 -4.83807,-0.0685 -9.98739,-0.10495 -5.14924,-0.0368 -10.9787,-0.13149 -12.95424,-0.21084 -1.97554,-0.0793 -3.58529,0.11742 -3.57716,0.43705 0.006,0.31962 -0.28795,0.4045 -0.65787,0.18876 -1.01286,-0.59116 -14.03893,-0.49659 -14.96492,0.10879 -0.45887,0.29979 -1.84468,0.14109 -3.21952,-0.36906 -1.98982,-0.73834 -2.58162,-0.74906 -3.36926,-0.0611 -0.78867,0.68903 -1.05829,0.681 -1.54471,-0.0461 -0.36963,-0.55268 -0.58579,-0.60419 -0.57999,-0.13822 0.006,0.54356 -1.79049,0.72116 -6.70122,0.66219 -3.6908,-0.0442 -7.41613,-0.22076 -8.27855,-0.39184 -2.7205,-0.54 -10.8535,-0.18493 -12.6229,0.55092 -1.16387,0.48411 -1.70343,0.5027 -1.71466,0.0595 -0.006,-0.3561 -0.50625,-0.58506 -1.10494,-0.50875 -0.59871,0.0765 -1.23041,0.0829 -1.40373,0.016 -0.17309,-0.0678 -2.84362,-0.16765 -5.93401,-0.22236 -3.0904,-0.0541 -7.16546,-0.17981 -9.0557,-0.279 -1.92137,-0.10078 -3.78301,0.12062 -4.22201,0.50216 -0.57687,0.50132 -17.25929,1.40514 -17.27116,0.93578 0,-0.032 -2.17976,-0.1363 -4.84226,-0.23388 -2.86227,-0.10494 -4.83467,0.0656 -4.82581,0.41676 0.01,0.3578 -0.77299,0.34193 -1.96466,-0.04 -1.45918,-0.46764 -2.27655,-0.43839 -3.10892,0.11134 -1.2954,0.85531 -1.96937,0.97955 -1.56621,0.28859 0.30651,-0.5251 -0.3345,-0.54282 -15.39047,-0.42617 -5.76502,0.0448 -10.63345,-0.15101 -10.81889,-0.43461 -0.18557,-0.2838 -0.56477,-0.36708 -0.84306,-0.18525 -0.27835,0.18173 -10.66881,0.69726 -23.09012,1.14537 -23.40513,0.84444 -28.44684,0.58758 -30.17599,-1.5375 -0.42416,-0.52119 -1.33473,-1.023 -2.02351,-1.11511 -1.01509,-0.13566 -1.20376,0.12702 -0.99634,1.38614 l 0.25596,1.55362 -1.61077,-1.42872 c -0.88584,-0.78582 -1.8515,-1.2713 -2.14582,-1.07895 -0.29435,0.19261 -0.92538,0.12222 -1.40223,-0.15613 -0.47678,-0.27836 -1.5057,-0.24476 -2.28634,0.0752 -0.86759,0.35521 -1.57192,0.34772 -1.81182,-0.0192 -0.21596,-0.33028 -0.6445,-0.43574 -0.95254,-0.23452 -0.5547,0.36246 -5.07106,0.51773 -13.21808,0.45441 -3.37313,-0.0256 -4.21839,0.15422 -4.23871,0.90395 -0.0192,0.64044 -0.13118,0.69265 -0.35965,0.16509 -0.46636,-1.07646 -1.89802,-0.92691 -2.3128,0.24156 -0.29211,0.82319 -0.56381,0.85394 -1.77775,0.20125 -1.13111,-0.60838 -10.62814,-0.55185 -45.08969,0.26843 -24.01121,0.57152 -47.59023,0.96211 -52.39778,0.86773 -10.91487,-0.21404 -27.11053,-0.22972 -50.83865,-0.0486 -10.11097,0.0774 -18.39426,0.11294 -18.40734,0.0793 -0.14238,-0.36704 -7.33954,-0.0486 -7.93579,0.35108 -0.61315,0.411 -0.61795,0.53422 -0.0224,0.52641 0.42898,-0.006 0.78742,0.28891 0.79667,0.65416 0.01,0.42297 -1.27429,0.60156 -3.53608,0.4916 -2.75666,-0.13406 -3.66345,-0.43487 -4.0464,-1.34246 -0.47781,-1.13226 -0.49403,-1.13226 -0.50782,0 -0.0128,0.99468 -0.16477,1.05048 -1.02251,0.37437 -1.12951,-0.89016 -1.5941,-0.95815 -8.93377,-1.30747 -4.39146,-0.20892 -5.3959,-0.0755 -6.3621,0.84434 -0.98972,0.94231 -1.19945,0.96595 -1.52743,0.17213 -0.31642,-0.76604 -2.2816,-0.88023 -11.73109,-0.68174 -6.24298,0.13118 -12.61849,0.088 -14.16764,-0.096 -7.1102,-0.84415 -24.53832,-0.59005 -24.8486,0.36221 -0.28379,0.87118 -1.29345,0.74922 -2.38466,-0.28827 -0.52749,-0.50152 -1.56965,-0.86376 -2.3159,-0.80508 -1.065,0.0838 -1.11885,0.16253 -0.25051,0.36563 0.60847,0.14238 0.94979,0.52692 0.75852,0.85464 -0.19132,0.32769 -0.58342,0.4582 -0.87153,0.29019 -0.28795,-0.16797 -2.87197,-0.39321 -5.74192,-0.5002 -2.86992,-0.10718 -6.06932,-0.30875 -7.10962,-0.44873 -1.0404,-0.13981 -5.67812,-0.30426 -10.30599,-0.36512 -4.62799,-0.0611 -10.10515,-0.34074 -12.17162,-0.62185 -2.0665,-0.28123 -5.30094,-0.48078 -7.18779,-0.44389 -1.88679,0.0368 -4.56055,-0.19773 -5.94163,-0.52183 -1.38105,-0.32398 -4.75738,-0.57847 -7.50284,-0.56544 -3.21334,0.016 -5.31123,-0.26812 -5.88851,-0.79504 -0.85445,-0.77993 -2.47063,-0.66539 -6.75637,0.47887 -0.93953,0.25083 -1.40185,0.0886 -1.41669,-0.49707 -0.0128,-0.47819 -0.51432,-0.90328 -1.11601,-0.94458 -4.86965,-0.3345 -7.21156,-0.65272 -8.15009,-1.10737 -0.60278,-0.29211 -2.2235,-0.69703 -3.60151,-0.89985 -1.37804,-0.20284 -3.91864,-0.72365 -5.64568,-1.15743 -1.7271,-0.43366 -7.64588,-1.28619 -13.15286,-1.89434 -5.50698,-0.60819 -10.29876,-1.31159 -10.64836,-1.56313 -0.34954,-0.25148 -2.38578,-0.61123 -4.52488,-0.79939 -2.40849,-0.2118 -3.84431,-0.61778 -3.77127,-1.06612 0.0653,-0.40115 -0.81679,-0.78973 -1.978,-0.87135 -1.60367,-0.11262 -1.97481,0.0429 -1.57958,0.66402 0.42159,0.66203 0.33287,0.67006 -0.48206,0.0438 -0.54922,-0.42217 -1.80338,-0.69003 -2.78702,-0.59539 -0.98365,0.0947 -2.91302,0.12126 -4.28748,0.0595 -4.96054,-0.2246 0.27036,-1.17967 7.86915,-1.43694 7.16849,-0.24252 9.24082,-0.58768 9.21689,-1.53443 -0.0256,-1.05579 -5.34292,-1.5743 -14.76994,-1.44043 -5.45199,0.0774 -10.82888,0 -11.94866,-0.16765 -1.343,-0.20349 -2.02967,-0.0598 -2.01748,0.42143 0.01,0.40144 -0.2422,0.57779 -0.56081,0.39184 -0.31866,-0.18589 -0.69367,0.0192 -0.83346,0.45228 -0.18525,0.57622 -0.61122,0.48945 -1.57218,-0.3204 -0.88622,-0.74688 -2.05406,-1.02859 -3.56452,-0.85985 -1.86747,0.2086 -2.50419,-0.0563 -3.77412,-1.56854 -1.71162,-2.03854 -1.37558,-1.94771 -7.10899,-1.92182 -2.97169,0.0128 -3.94087,-0.16606 -3.29164,-0.60918 0.50609,-0.34554 1.55149,-0.64853 2.3231,-0.67333 0.77162,-0.0256 1.39589,-0.32564 1.38719,-0.66869 -0.006,-0.34298 -0.48353,-0.6118 -1.05518,-0.59734 -0.57168,0.016 -0.87083,-0.15101 -0.66482,-0.36768 0.20605,-0.2166 2.21256,-0.45336 4.459,-0.5257 2.24644,-0.0723 4.07848,-0.36695 4.07122,-0.65461 -0.016,-0.61318 -0.69745,-0.72954 -4.07388,-0.69473 -2.87993,0.0288 -3.87928,-0.95124 -1.59986,-1.57036 l 1.54947,-0.42093 -1.59471,-1.36713 c -1.17705,-1.00898 -2.54463,-1.40018 -5.22133,-1.49363 -1.99461,-0.0694 -4.31371,-0.55242 -5.15354,-1.07285 -0.89908,-0.55706 -3.01133,-0.93808 -5.1367,-0.92653 -3.35947,0.0192 -3.44618,-0.016 -1.25096,-0.49925 3.10057,-0.68212 3.83494,-1.48234 2.8887,-3.14769 -0.40515,-0.71304 -0.65663,-1.29991 -0.55885,-1.30407 1.28311,-0.055 21.04335,-2.47885 21.95139,-2.69251 0.68235,-0.16061 1.94163,-0.33556 2.79835,-0.38874 1.24117,-0.0768 1.36447,-0.21468 0.60687,-0.67758 -0.75075,-0.45874 -0.61625,-0.59135 0.63929,-0.63068 0.87451,-0.0288 1.85028,-0.32349 2.16827,-0.658 0.31803,-0.3346 2.2578,-0.80655 4.31058,-1.04881 2.05277,-0.2422 3.81881,-0.72187 3.92452,-1.06578 0.10591,-0.34394 0.60633,-0.63583 1.11249,-0.64862 0.50619,-0.0128 0.74765,-0.28764 0.53661,-0.61037 -0.21084,-0.32292 -0.83723,-0.39971 -1.3916,-0.17053 -0.67205,0.27772 -0.86434,0.17021 -0.57703,-0.32202 0.26012,-0.44598 -0.14429,-0.94487 -1.02159,-1.25998 -4.73642,-1.70103 -4.75395,-1.75837 -0.54861,-1.7935 6.25259,-0.0525 10.12259,-0.43567 11.9716,-1.18642 0.92819,-0.37693 2.18926,-0.48091 2.80234,-0.23132 0.61315,0.24956 1.35344,0.39344 1.64517,0.31962 0.29147,-0.0739 0.92995,0.18045 1.41838,0.56548 0.64335,0.50698 0.88315,0.50698 0.87039,-2e-4 -0.01,-0.38499 0.90208,-0.7232 2.02622,-0.75165 1.12419,-0.0288 2.65667,-0.50439 3.40554,-1.05767 0.7488,-0.55326 1.36556,-0.84319 1.37058,-0.64438 0.006,0.19869 0.68296,-0.10462 1.50644,-0.67451 1.84366,-1.27582 8.38442,-3.03443 8.404,-2.25955 0.006,0.31098 0.53802,0.26619 1.18319,-0.10047 0.8828,-0.50155 1.2605,-0.44242 1.54301,0.24156 0.24636,0.596 1.01979,0.81385 2.26269,0.63718 1.03871,-0.14782 1.89495,-0.016 1.90279,0.29531 0.006,0.31002 0.54973,0.25947 1.20427,-0.11231 0.65442,-0.3719 2.26023,-0.72224 3.56853,-0.77858 1.89923,-0.0819 2.12441,-0.20413 1.11773,-0.60774 -0.69352,-0.27804 -2.03684,-0.65161 -2.98523,-0.8302 -0.94845,-0.17885 -1.72973,-0.53789 -1.73635,-0.79839 -0.0128,-0.49512 4.60192,-0.5212 5.97513,-0.0336 0.43583,0.15486 0.92087,-0.0806 1.07787,-0.52321 0.19772,-0.55725 -0.88517,-0.99173 -3.52316,-1.41352 -2.09481,-0.33505 -4.09973,-0.88574 -4.45541,-1.22392 -0.43609,-0.41446 0,-0.44642 1.344,-0.0979 1.21077,0.31419 2.12483,0.287 2.33311,-0.0694 0.18845,-0.3227 -0.31963,-0.56996 -1.1288,-0.54948 -0.80911,0.0224 -1.76566,-0.24284 -2.12553,-0.58486 -0.35991,-0.34212 -1.82533,-0.71406 -3.25642,-0.82658 -1.43118,-0.11263 -3.15809,-0.48418 -3.83756,-0.82604 -0.88632,-0.44588 -1.35632,-0.41443 -1.66321,0.11166 -0.28347,0.48561 -0.15646,0.55571 0.37581,0.20796 0.53175,-0.34746 0.65921,-0.27771 0.37686,0.20605 -0.60361,1.03432 -1.59602,0.93495 -1.62385,-0.16253 -0.0128,-0.50801 -0.6581,-1.03733 -1.43384,-1.17638 -0.77581,-0.13918 -2.54025,-0.50638 -3.92095,-0.81625 -2.37765,-0.53367 -2.32853,-0.55059 0.92798,-0.32042 1.89107,0.13373 4.28193,0.28795 5.31306,0.34288 1.03102,0.055 2.30022,0.27132 2.82032,0.48047 2.22818,0.8968 13.76602,1.46356 13.74612,0.67527 -0.006,-0.26171 -0.8351,-0.63483 -1.84104,-0.8293 -2.06954,-0.39987 -2.96465,-1.85972 -1.93862,-3.16161 0.54362,-0.68987 0.43596,-0.86805 -0.50986,-0.84408 -0.65938,0.016 -1.47189,-0.21501 -1.80553,-0.51448 -0.3336,-0.29947 -1.73302,-0.66721 -3.10968,-0.81698 -5.30667,-0.57712 -8.72552,-1.31066 -8.94567,-1.91926 -0.13118,-0.36241 -1.24638,-0.47119 -2.60411,-0.25404 -1.41119,0.22588 -2.55621,0.10206 -2.82193,-0.30427 -0.24603,-0.37626 -1.17887,-0.66552 -2.07325,-0.6429 -2.65501,0.0672 -1.12816,-0.71038 1.89786,-0.96656 2.15061,-0.18205 2.72063,-0.0384 2.4848,0.62559 -0.16829,0.474 0.006,0.85397 0.38441,0.84437 0.37978,-0.01 0.67621,-0.57875 0.65887,-1.26481 -0.0192,-0.68596 -0.32884,-1.23976 -0.69204,-1.23051 -0.36327,0.01 -0.48191,-0.28923 -0.26364,-0.66322 0.24572,-0.42121 0.77878,-0.16317 1.40053,0.67867 0.93386,1.26392 1.05669,1.28238 1.76256,0.26396 0.56486,-0.815 1.05444,-0.94919 1.91631,-0.52532 0.63667,0.31322 2.04827,0.41084 3.13686,0.21692 1.84202,-0.32788 1.97259,-0.52071 1.88422,-2.78113 -0.0755,-1.9224 -0.3321,-2.42283 -1.23205,-2.40008 -0.62527,0.016 -1.32045,-0.2518 -1.5447,-0.59507 -0.22428,-0.34317 -0.62504,-0.4819 -0.89054,-0.30843 -0.26555,0.17341 -0.379,-0.31035 -0.25211,-1.0755 0.17853,-1.0762 0.71808,-1.43896 2.38459,-1.60267 1.50944,-0.14846 2.27703,0.0861 2.56504,0.78335 0.36052,0.87295 0.47269,0.87813 0.91287,0.0426 0.38429,-0.72935 1.01724,-0.84988 2.70217,-0.51444 1.29393,0.25755 2.19432,0.19932 2.18572,-0.14174 -0.006,-0.35485 0.41449,-0.3682 1.09121,-0.0345 1.95464,0.96419 6.43098,1.36521 6.41095,0.57423 -0.01,-0.3934 0.26684,-0.54893 0.61532,-0.3456 0.34839,0.20316 0.6262,0.0857 0.6174,-0.2614 -0.016,-0.64168 -3.85967,-1.83083 -5.78085,-1.7885 -0.58,0.016 -1.2372,-0.25595 -1.46024,-0.59753 -0.26235,-0.40115 0.60426,-0.52522 2.45038,-0.35092 1.77548,0.16766 2.85002,0.0256 2.83981,-0.37699 -0.006,-0.35565 -1.06942,-0.64623 -2.3565,-0.64568 -1.28711,0 -3.46569,-0.0877 -4.84133,-0.19581 -1.37565,-0.10846 -5.01372,-0.11998 -8.08473,-0.0256 -5.65473,0.17309 -6.4592,-0.19132 -2.7438,-1.24414 2.19353,-0.62146 0.0675,-0.45292 -7.75338,0.61468 -2.31875,0.31643 -3.58168,0.2598 -3.59236,-0.16157 -0.006,-0.35738 0.47099,-0.80838 1.06673,-1.0022 1.56585,-0.50955 -5.8992,0.30875 -13.84654,1.5175 -10.08974,1.53479 -18.97689,2.23262 -18.9956,1.49156 -0.006,-0.34324 1.1575,-0.74019 2.59153,-0.88199 2.5255,-0.24988 2.57055,-0.29276 1.43534,-1.36592 -1.02341,-0.96758 -1.89094,-1.04437 -6.8415,-0.60543 l -5.66949,0.5027 2.77496,-1.31463 2.77493,-1.31469 -2.33862,0.4373 c -3.61555,0.67595 -17.826,1.06277 -17.48315,0.47614 0.16766,-0.28699 -0.26939,-0.14237 -0.97161,0.32094 -0.96336,0.63609 -1.4572,0.67103 -2.01323,0.14238 -0.556,-0.52862 -0.11934,-0.8835 1.78002,-1.44683 1.38425,-0.41062 2.7462,-0.71307 3.0266,-0.67218 0.28027,0.0413 0.64875,0.016 0.81858,-0.055 0.59254,-0.2486 2.19989,-0.59577 6.51683,-1.40815 7.11356,-1.33865 7.3188,-1.39227 7.97463,-2.08211 0.4349,-0.45756 0.39664,-0.65695 -0.1235,-0.64377 -0.57888,0.016 -0.57907,-0.27931 -6.1e-4,-1.26714 0.59536,-1.01721 0.58944,-1.38227 -0.0288,-1.74573 -0.42966,-0.25275 -4.96192,-0.33316 -10.07166,-0.17885 -7.38954,0.22333 -9.23096,0.11294 -8.99939,-0.5393 0.423,-1.19154 1.90816,-1.89232 5.26005,-2.48198 3.26659,-0.57469 4.6804,-2.07873 3.02954,-3.22292 -0.80742,-0.55965 -0.39158,-0.78294 2.23271,-1.19884 1.77369,-0.28123 3.5006,-0.35027 3.8376,-0.15389 0.33694,0.19677 0.60428,0.0256 0.59401,-0.37923 -0.0128,-0.55658 0.19677,-0.56711 0.8621,-0.0429 0.67473,0.53169 0.95398,0.48783 1.19378,-0.1878 0.17213,-0.48501 1.10331,-1.05071 2.06922,-1.25707 3.48665,-0.74494 5.51146,-1.26853 7.33407,-1.89681 1.02076,-0.35184 2.90428,-0.5815 4.18564,-0.51025 1.28132,0.071 2.40206,-0.1075 2.49052,-0.39718 0.0886,-0.28955 1.28049,-0.59254 2.64893,-0.67307 1.36842,-0.0803 2.67364,-0.44696 2.90051,-0.81442 0.231,-0.37437 2.41617,-0.70046 4.96954,-0.74164 4.89105,-0.079 6.40542,-0.95785 5.64132,-3.27398 -0.26395,-0.80076 -0.11902,-1.06827 0.47147,-0.87003 0.46898,0.15742 0.77824,0.64405 0.68722,1.08136 -0.12574,0.60502 0.54711,0.66766 2.81485,0.26171 1.63915,-0.29339 3.3493,-0.5639 3.8002,-0.60108 0.5425,-0.0448 0.68388,-0.55684 0.41785,-1.51357 -0.32849,-1.1815 -0.14366,-1.46964 1.01065,-1.5759 3.79926,-0.34938 5.39189,-0.53437 8.25621,-0.95865 1.7097,-0.25308 4.45436,-0.66028 6.09924,-0.90443 1.7206,-0.25563 3.32824,-0.17821 3.78557,0.18237 0.57245,0.4511 1.07975,0.27612 1.81253,-0.62479 1.14349,-1.406 4.11051,-1.88282 3.7179,-0.5975 -0.24188,0.79126 1.53181,0.1203 2.57087,-0.97257 0.57536,-0.60534 1.28855,-0.95917 1.58476,-0.7863 0.29627,0.17309 0.70807,0.0224 0.91523,-0.33115 0.25372,-0.43455 0.76458,-0.45029 1.56419,-0.048 0.80767,0.40624 1.31156,0.38461 1.5757,-0.0682 0.21917,-0.37549 1.33546,-0.5392 2.56306,-0.37587 1.4046,0.18717 2.02901,0.0665 1.76323,-0.34026 -0.42758,-0.65416 3.1826,-0.78365 4.37091,-0.15678 1.09374,0.577 1.8149,0.43513 4.25628,-0.83758 1.3058,-0.68059 2.19551,-0.9315 1.97724,-0.55751 -0.22236,0.38054 0.0605,0.6685 0.64213,0.65378 0.66731,-0.016 0.90212,-0.35764 0.65634,-0.95267 -0.21053,-0.50949 -0.0765,-0.93409 0.29787,-0.94356 0.48318,-0.0128 0.482,-0.24444 -0.006,-0.80089 -1.28478,-1.47066 2.03902,-4.23132 3.46377,-2.87692 0.55684,0.52941 0.73268,0.51777 0.71838,-0.0474 -0.01,-0.41161 0.54234,-0.76259 1.2284,-0.77993 0.83148,-0.0224 1.25777,0.38422 1.27886,1.21573 0.0192,0.686 -0.24892,1.25439 -0.5921,1.26306 -0.34301,0.006 -0.61717,0.27227 -0.60924,0.58591 0.006,0.31355 1.20441,0.42963 2.65876,0.2582 8.75155,-1.03288 16.1777,-2.07463 19.39415,-2.72063 2.02786,-0.40726 6.64827,-0.92583 10.26753,-1.15242 3.61927,-0.22652 7.22145,-0.77164 8.00487,-1.21125 0.98873,-0.55488 1.56022,-0.60009 1.86836,-0.14782 0.24444,0.35844 0.95878,0.55898 1.58799,0.44582 1.80753,-0.325 2.0028,-0.94519 0.28411,-0.90171 -0.96336,0.0224 -1.56806,-0.3145 -1.58258,-0.88692 -0.0224,-0.91543 0.81663,-1.38486 3.54651,-1.98258 0.77017,-0.16861 1.69328,-0.64261 2.0513,-1.0533 0.47346,-0.54304 0.4414,-0.62127 -0.11742,-0.28699 -0.42265,0.25308 -0.77593,0.16286 -0.78512,-0.2006 -0.01,-0.36324 0.75511,-0.67563 1.69857,-0.69429 1.33657,-0.0256 1.51213,0.10463 0.79506,0.5944 -0.78636,0.53681 -0.7614,0.62559 0.17149,0.6101 0.60045,-0.006 1.08024,-0.46897 1.06626,-1.02024 -0.016,-0.62489 0.3226,-0.87867 0.89905,-0.67403 0.50842,0.18045 1.0834,0.0553 1.27786,-0.27771 0.19421,-0.3332 -0.0749,-0.59491 -0.59919,-0.58164 -0.58822,0.016 -0.82518,-0.33517 -0.61929,-0.91517 0.3751,-1.05659 -0.89,-1.67319 -3.63133,-1.76985 -4.50884,-0.15901 -4.66664,-0.19548 -3.69605,-0.85816 0.50612,-0.34554 0.63896,-0.64431 0.29531,-0.66408 -0.34375,-0.0192 -1.52586,-0.13054 -2.62702,-0.24636 -1.10109,-0.11582 -2.166,0.0704 -2.36648,0.41408 -0.49035,0.84018 -3.61069,0.87524 -4.47845,0.0505 -0.50059,-0.47592 -0.80764,-0.46815 -1.09697,0.0288 -0.22108,0.37869 -0.99343,0.70353 -1.71632,0.72187 -1.80878,0.0457 -0.85349,0.7967 1.9789,1.55567 1.42216,0.38106 2.9222,0.40531 3.78484,0.0611 0.87509,-0.34912 1.73603,-0.32801 2.22132,0.0541 0.43571,0.34347 1.2444,0.43766 1.79698,0.20957 0.55255,-0.22812 1.01164,-0.13694 1.02025,0.20284 0.0224,0.90808 -2.58165,1.50321 -3.48006,0.79526 -0.48792,-0.38444 -0.90308,-0.38486 -1.12704,0 -0.38378,0.65762 -1.92282,0.64076 -2.62705,-0.0288 -0.23964,-0.2278 -1.77817,-0.5578 -3.41888,-0.73335 -2.57298,-0.27515 -2.95381,-0.49502 -2.77023,-1.59826 0.11934,-0.71563 -0.26939,-1.62674 -0.88238,-2.06826 -0.60242,-0.43391 -0.85073,-0.80419 -0.55178,-0.82265 0.29883,-0.0192 0.18653,-0.44248 -0.25019,-0.94218 -0.64281,-0.73584 -0.60435,-0.98681 0.2022,-1.32 1.50807,-0.62294 1.23608,-2.33177 -0.28731,-1.80546 -0.74506,0.25724 -1.24443,0.14366 -1.25531,-0.28603 -0.01,-0.4119 -0.87348,-0.64485 -2.04209,-0.5512 -1.11325,0.0893 -2.30624,0.1075 -2.65114,0.0413 -0.34493,-0.0666 -0.86929,-0.071 -1.16531,-0.01 -0.29595,0.0618 -1.49552,-0.17757 -2.6656,-0.53108 -3.02628,-0.9145 -2.83325,-2.40036 0.32222,-2.48022 2.586,-0.0653 3.53966,-1.28113 1.0579,-1.34864 -0.77273,-0.0224 -0.079,-0.34976 1.54163,-0.73056 1.62069,-0.38081 2.94089,-0.92257 2.93378,-1.20406 -0.0192,-0.69681 -1.88583,-2.42548 -2.60167,-2.40731 -0.31835,0.006 -0.59024,-0.42293 -0.60377,-0.95763 -0.016,-0.61698 0.26459,-0.80489 0.76707,-0.51403 0.46408,0.26876 0.35904,-0.16541 -0.25404,-1.04881 -0.79673,-1.14838 -1.69533,-1.53805 -3.77537,-1.63704 -1.50141,-0.0713 -2.94891,-0.45602 -3.21687,-0.85461 -0.36598,-0.54461 -0.48449,-0.53095 -0.47684,0.055 0.006,0.42899 -0.45372,0.79155 -1.02073,0.80588 -0.82297,0.0224 -0.74723,-0.23292 0.37568,-1.25751 0.77363,-0.70609 1.80466,-1.2938 2.29114,-1.30609 0.4866,-0.0128 1.32016,-0.48056 1.85249,-1.04059 0.64773,-0.6813 1.56629,-0.91412 2.77688,-0.70369 1.21099,0.21052 1.66567,0.095 1.37535,-0.3489 -0.23932,-0.36641 -1.44433,-0.51505 -2.69155,-0.33211 -1.79288,0.263 -2.55503,0.032 -3.69909,-1.12694 -1.98802,-2.01176 -1.85377,-2.38229 1.16659,-3.21972 2.35039,-0.6516 2.50591,-0.63017 1.4459,0.19965 -0.65336,0.51137 -1.5552,0.93904 -2.00408,0.9504 -1.63301,0.0413 -0.7313,1.18805 1.45326,1.84829 1.88176,0.56868 2.41265,0.51297 3.31656,-0.34762 0.5919,-0.56352 1.47489,-1.03902 1.96223,-1.05656 0.73633,-0.0256 0.7251,-0.14173 -0.0665,-0.68119 -0.78426,-0.53454 -0.74244,-0.58659 0.23612,-0.29436 1.93478,0.57754 8.46437,-1.12099 8.43724,-2.19483 -0.0192,-0.77254 -0.71822,-0.83474 -4.19488,-0.37318 -3.80577,0.50522 -4.09996,0.46315 -3.35672,-0.47995 0.73216,-0.92903 0.5593,-1.00678 -1.70647,-0.76724 -1.38668,0.14654 -2.8901,0.55242 -3.34104,0.90177 -0.45096,0.34935 -1.58975,0.73441 -2.53048,0.8556 -1.38793,0.17885 -1.71697,-0.032 -1.74435,-1.11354 -0.0256,-1.03064 0.24028,-1.25464 1.17065,-0.98498 1.31735,0.38172 2.38395,-0.67244 1.11319,-1.1002 -0.95037,-0.31995 -14.80821,0.31674 -22.74765,1.0451 -3.16743,0.29051 -5.76213,0.40454 -5.766,0.2534 -0.006,-0.23612 7.23078,-1.24754 17.46964,-2.44158 3.6591,-0.42674 4.91,-0.95776 4.88175,-2.07261 -0.0192,-0.72989 -1.42457,-0.85074 -7.66122,-0.65816 -11.40289,0.35223 -20.06822,0.0595 -20.33832,-0.68779 -0.13021,-0.36052 -1.32749,-0.62796 -2.66016,-0.5942 -1.89223,0.048 -2.35,-0.14462 -2.08944,-0.87858 0.31259,-0.88023 -1.0874,-0.96166 -3.83446,-0.22268 -0.3409,0.0918 -1.18246,0.12542 -1.87022,0.0755 -1.02053,-0.0749 -0.93328,-0.21661 0.47455,-0.77069 1.29831,-0.51111 1.5574,-0.87109 1.04715,-1.45505 -0.53293,-0.61014 0.0457,-0.811 2.70684,-0.93978 1.86164,-0.0902 4.17166,-0.49844 5.13351,-0.9075 0.96186,-0.40905 2.99345,-0.73894 4.51464,-0.73312 1.52118,0.006 2.56955,-0.17597 2.32962,-0.40403 -0.4309,-0.40966 -1.98527,-0.63768 -4.58755,-0.67301 -0.73584,-0.01 -1.52627,-0.47422 -1.75657,-1.03182 -0.35012,-0.84764 -0.2598,-0.88856 0.55098,-0.24956 0.66347,0.52285 0.96406,0.54317 0.952,0.064 -0.01,-0.38499 -0.2294,-0.73198 -0.48757,-0.77101 -0.96191,-0.14557 -5.62744,-0.37168 -10.633,-0.51537 -5.37852,-0.15453 -9.43102,-1.62113 -9.08548,-3.28834 0.13949,-0.67327 0,-0.67183 -0.77987,0.006 -0.73837,0.64504 -0.95459,0.65793 -0.96982,0.0573 -0.0128,-0.48991 -0.59283,-0.64806 -1.58595,-0.43203 -0.86145,0.18717 -1.68493,0.15902 -1.82986,-0.0624 -0.14494,-0.22172 -1.32385,-0.44773 -2.61982,-0.50209 -1.29591,-0.0541 -2.77237,-0.42678 -3.28086,-0.82751 -0.50855,-0.40076 -1.01999,-0.65605 -1.13664,-0.56726 -0.51809,0.39433 -2.08426,0.15805 -2.09626,-0.31611 -0.006,-0.28859 1.25445,-0.36506 2.80388,-0.16989 1.87745,0.23644 2.81467,0.12766 2.80955,-0.32606 -0.006,-0.44053 0.15965,-0.46488 0.46626,-0.0685 0.26075,0.33662 1.31725,0.64236 2.34786,0.67944 3.51883,0.1267 8.07333,0.66494 8.42108,0.99542 0.19101,0.18173 -0.14109,0.70618 -0.73741,1.16588 -1.02434,0.7896 -1.01416,0.8524 0.18301,1.13341 2.23828,0.52523 6.18872,-0.38454 5.79625,-1.33478 -0.27996,-0.67768 0.61698,-0.87602 4.39232,-0.97158 5.31373,-0.13438 6.54981,-1.18918 1.43975,-1.22853 -11.80573,-0.0909 -12.95542,-0.2598 -12.99718,-1.9089 -0.0224,-0.90404 -0.86574,-0.97126 -10.38843,-0.8286 -4.61744,0.0694 -5.03705,-0.0256 -4.78672,-1.09405 0.19037,-0.81174 0.63554,-1.0652 1.45393,-0.82806 0.64863,0.18813 1.17248,0.0704 1.16413,-0.26139 -0.0128,-0.54113 -7.71061,-2.2786 -10.04213,-2.26689 -7.8782,0.04 -10.61051,-0.0707 -10.61959,-0.42959 -0.0128,-0.52244 3.62464,-1.70432 7.37662,-2.39662 1.79966,-0.33214 2.43562,-0.66418 1.84772,-0.9649 -0.83567,-0.42744 -5.66651,-1.33907 -7.23127,-1.36463 -0.38266,-0.006 -1.16582,-0.38189 -1.74044,-0.83468 -1.02374,-0.80674 -5.32983,-0.91098 -8.48946,-0.2054 -0.8651,0.19293 -3.25322,0.53335 -5.30692,0.7559 -4.34529,0.47096 -3.38919,-0.16829 2.91487,-1.9486 6.6968,-1.89139 5.40729,-3.08905 -3.35508,-3.11618 -3.26087,-0.01 -6.20972,-0.0192 -6.55299,-0.0224 -0.34327,0 -0.23228,-0.26427 0.24668,-0.58467 1.15984,-0.77593 -4.25752,-1.46516 -7.18359,-0.91405 -1.17667,0.22172 -2.14604,0.13982 -2.15417,-0.18141 -0.006,-0.32142 -0.86661,-0.56285 -1.90768,-0.53652 -1.04107,0.0256 -2.61604,-0.40019 -3.49989,-0.94787 l -1.60706,-0.99584 1.78565,-0.8045 c 0.98211,-0.44255 3.78033,-1.21337 6.21832,-1.71309 4.71885,-0.96701 5.62401,-2.08122 1.18725,-1.46142 -2.04512,0.28571 -2.4352,0.20573 -1.72495,-0.35309 0.72691,-0.57213 0.46481,-0.67314 -1.26037,-0.48578 -1.38383,0.15038 -2.13567,-0.0256 -2.06157,-0.48292 0.12126,-0.74676 -1.51005,-0.68424 -5.43394,0.20796 -1.8412,0.41878 -1.65611,0.22876 1.21647,-1.24936 2.41338,-1.24177 4.19664,-1.71907 6.19845,-1.65933 1.54569,0.0461 3.92231,-0.17789 5.28138,-0.49755 2.04014,-0.48024 2.25323,-0.66047 1.22194,-1.03349 -0.68702,-0.2486 -2.58264,-0.43779 -4.21254,-0.42064 -2.13843,0.0224 -2.96974,-0.2182 -2.98609,-0.86388 -0.0192,-0.71768 -1.20713,-0.85861 -5.99823,-0.71131 -3.28655,0.10142 -6.23825,-0.0659 -6.55928,-0.37111 -0.35201,-0.3346 0.32084,-0.63886 1.69488,-0.76643 2.75983,-0.25595 3.4957,-0.67787 3.05296,-1.74975 -0.42114,-1.01961 0.97939,-1.63822 4.45132,-1.96614 1.48743,-0.14045 3.01815,-0.5854 3.40161,-0.98882 0.52439,-0.55162 -0.26972,-0.61152 -3.20347,-0.24188 -3.01943,0.38057 -3.86588,0.30843 -3.74673,-0.31931 0.0848,-0.44591 -0.26364,-0.81298 -0.77373,-0.81567 -0.51021,0 -1.02597,-0.45404 -1.14614,-1.00284 -0.17885,-0.81692 0.63164,-1.09658 4.47042,-1.54262 2.57889,-0.29979 5.83285,-0.98131 7.23107,-1.51476 1.3982,-0.53351 3.36578,-1.05367 4.37239,-1.15612 1.00662,-0.10238 2.37605,-0.72103 3.0432,-1.37487 0.74759,-0.73271 2.41899,-1.30939 4.35604,-1.50305 1.72867,-0.17277 3.49922,-0.62527 3.93461,-1.00556 1.1247,-0.98255 7.72811,-2.88304 9.82366,-2.8274 1.12807,0.0288 1.60521,-0.19356 1.32576,-0.62124 -0.24379,-0.37286 -0.0627,-0.60498 0.40966,-0.52538 0.46543,0.0784 3.22561,-0.15933 6.13366,-0.52858 2.90806,-0.36919 5.68014,-0.61331 6.16028,-0.54238 0.48008,0.0707 1.03682,-0.12414 1.23708,-0.43298 0.65489,-1.01026 9.55743,-3.47417 13.69949,-3.79149 3.62419,-0.27772 4.06566,-0.455 4.2129,-1.69188 0.18429,-1.547 1.17625,-1.86685 1.71862,-0.55399 0.48082,1.1641 2.6267,0.47004 3.04861,-0.98614 0.28923,-0.99848 0.93069,-1.16018 4.51617,-1.13897 4.14734,0.0224 6.0729,0.83439 4.04252,1.70029 -0.6341,0.27035 0.032,0.44111 1.66049,0.42614 2.0315,-0.0192 2.63175,-0.23485 2.37557,-0.8549 -0.2502,-0.60608 0.10622,-0.76087 1.32276,-0.57376 0.91613,0.14078 1.99793,0.50455 2.40414,0.80812 0.45893,0.34305 0.89191,0.28891 1.144,-0.14302 0.29339,-0.5025 0.64325,-0.50756 1.2642,-0.0192 0.56061,0.44175 1.89652,0.48798 3.84813,0.13309 1.64417,-0.29915 3.69045,-0.5838 4.5472,-0.63295 1.19849,-0.0681 1.53834,-0.41093 1.47323,-1.48352 l -0.0848,-1.39427 22.19775,-0.20252 c 21.79075,-0.19869 80.61846,-1.12928 86.13299,-1.36233 1.54288,-0.0653 3.08611,-0.11678 3.42941,-0.11422 11.52076,0.0736 31.7208,0.088 39.31549,0.0288 5.49044,-0.0429 14.47726,-0.0224 19.97064,0.048 15.33868,0.19421 37.12574,0.17885 40.25009,-0.0288 1.54194,-0.1027 3.08444,-0.18141 3.42784,-0.17469 0.34336,0.006 3.71512,0.0806 7.49269,0.16477 13.12356,0.29243 26.31626,0.36269 43.37696,0.23132 20.5187,-0.15805 40.08806,-0.17181 49.92267,-0.0349 6.47789,0.0902 14.53526,0.0889 49.92335,-0.006 6.00603,-0.016 22.43022,-0.16445 36.49823,-0.32936 14.06804,-0.16477 30.35283,-0.27483 36.1884,-0.24475 5.83557,0.0288 15.75746,0.01 22.04853,-0.0442 8.4549,-0.0733 11.5724,0.10591 11.95227,0.68709 0.36842,0.56378 0.63116,0.58499 0.92893,0.0749 0.22812,-0.3912 0.71451,-0.53665 1.08033,-0.32321 0.36589,0.21372 6.03643,0.34672 12.60128,0.29595 6.56482,-0.0506 18.1137,-0.10943 25.66408,-0.13054 22.31127,-0.0624 24.069,-0.0934 24.39009,-0.43107 0.16862,-0.17757 1.53837,0.016 3.04375,0.42633 1.50544,0.41181 2.8894,0.58861 3.07548,0.39283 0.48315,-0.5083 12.84985,-0.58585 13.70638,-0.0861 0.39257,0.22908 3.66678,0.411 7.2759,0.40425 20.56411,-0.0384 56.51613,0.0995 59.61196,0.22908 1.37436,0.0573 8.5378,0.15773 15.91877,0.22236 7.38094,0.065 14.33792,0.32859 15.45991,0.58586 1.17327,0.26907 2.03399,0.23036 2.0259,-0.0912 -0.006,-0.30747 1.60232,-0.48692 3.57809,-0.39862 1.97579,0.0883 3.59312,0.18973 3.59399,0.22556 0.006,0.13022 19.13404,0.14686 35.57128,0.032 15.816,-0.11166 39.9027,-0.11422 51.1715,-0.006 2.7465,0.0256 10.751,0.072 17.7878,0.10078 7.0369,0.0288 16.307,0.1523 20.6004,0.27356 4.2934,0.12126 14.2628,0.13309 22.1543,0.0256 27.9913,-0.38022 50.5821,-0.46411 53.9747,-0.2006 4.6274,0.35952 18.7785,0.63045 23.413,0.44824 7.7331,-0.30395 11.9243,-0.31931 14.3517,-0.0525 1.3768,0.15133 4.3295,0.31419 6.5617,0.36183 2.2321,0.0473 7.7111,0.16349 12.1753,0.25723 4.4643,0.0937 9.2426,0.2662 10.6184,0.38295 4.8637,0.41308 11.3458,0.69585 19.3668,0.84482 4.4641,0.0829 8.9593,0.16797 9.9895,0.18908 1.1589,0.0224 2.0546,0.45916 2.349,1.14189 0.4163,0.96535 1.7128,1.3903 2.7176,0.89073 0.1817,-0.0905 0.5679,0.19869 0.858,0.64255 0.5751,0.88002 6.3452,1.31053 6.3239,0.47176 -0.01,-0.28347 0.4079,-0.52631 0.9224,-0.5393 0.5146,-0.0128 0.9411,0.19709 0.948,0.46725 0.01,0.27004 0.5747,0.51895 1.262,0.55332 0.6874,0.0342 1.2422,-0.23516 1.233,-0.59891 -0.01,-0.39523 0.3948,-0.3369 1.0063,0.14493 1.3395,1.05567 10.7591,1.17706 11.9305,0.15358 0.6559,-0.57299 0.8122,-0.55677 0.6807,0.071 -0.1949,0.93034 0.8591,1.10269 8.0906,1.32342 7.3722,0.22525 10.8568,0.75364 11.2505,1.70669 0.2841,0.68779 0.4963,0.67291 1.2173,-0.0857 0.6101,-0.64165 1.3034,-0.76746 2.2997,-0.41731 0.7846,0.2758 3.3824,0.66408 5.7732,0.8629 2.3907,0.19868 3.999,0.49063 3.574,0.64866 -0.4251,0.15805 -0.7673,0.50545 -0.7606,0.77228 0.013,0.48536 8.3935,2.78389 11.2782,3.09302 1.8456,0.19773 2.4593,1.39465 0.8915,1.73881 -0.6162,0.13534 0.6471,0.7331 2.8073,1.32832 2.1602,0.59526 3.9331,1.29585 3.9397,1.55706 0.01,0.26107 1.4925,0.92522 3.3019,1.47575 3.0148,0.91738 3.174,1.0563 1.9039,1.66209 -0.9497,0.45285 -1.8299,0.45663 -2.7962,0.0128 -2.5568,-1.17677 -4.2848,-1.39225 -5.1444,-0.64127 -0.6227,0.544 -1.1919,0.5671 -2.146,0.0873 -0.7143,-0.35933 -2.3546,-0.66165 -3.6452,-0.67188 -1.2906,-0.01 -2.5367,-0.2934 -2.7691,-0.62937 -0.65,-0.93978 -8.5153,-0.61811 -9.4127,0.38499 -0.6253,0.69899 -0.2963,0.76554 1.8826,0.38093 2.1173,-0.37367 2.6452,-0.27932 2.6643,0.47688 0.016,0.63183 0.641,0.92723 1.8948,0.89546 1.1387,-0.0288 1.8791,0.27644 1.8918,0.78013 0.016,0.57293 -0.5839,0.75431 -1.9458,0.58947 -1.2189,-0.1475 -1.814,-0.006 -1.5649,0.37693 0.4451,0.68097 4.1122,1.19378 10.7498,1.5032 2.4054,0.11198 6.3034,0.60096 8.6623,1.08632 2.6419,0.54368 5.4732,0.71172 7.3731,0.43781 2.4394,-0.35165 3.1666,-0.2454 3.4776,0.50782 0.2167,0.52375 0.9925,1.20101 1.7247,1.5049 1.1359,0.47134 1.0782,0.50916 -0.3922,0.25788 -0.9889,-0.16894 -1.7167,-0.0192 -1.7073,0.35078 0.01,0.35505 -0.7567,0.61251 -1.7016,0.57213 -0.9449,-0.0406 -2.3208,0.14206 -3.0575,0.4049 -0.7367,0.26299 -1.5166,0.207 -1.733,-0.12414 -0.4625,-0.7076 -4.083,0.47768 -4.0614,1.32969 0.01,0.29851 0.4327,0.36999 0.9447,0.15838 1.4443,-0.59651 5.7204,0.23772 4.6855,0.91402 -0.467,0.30523 -1.0785,0.42095 -1.3588,0.25724 -0.2803,-0.1635 -0.6713,0.15741 -0.8687,0.71341 -0.208,0.58566 -0.9159,0.94836 -1.683,0.86223 -0.7283,-0.0819 -1.319,0.17885 -1.3127,0.57904 0.01,0.40031 -0.1935,0.94355 -0.4443,1.20731 -0.7451,0.78381 -0.4958,1.52071 0.5059,1.4953 0.5145,-0.0128 0.9461,0.39735 0.9592,0.91182 0.013,0.51966 0.578,0.92141 1.2709,0.90388 0.8316,-0.0224 1.2578,0.38422 1.2788,1.21576 0.019,0.68597 0.3123,1.24021 0.6553,1.23148 0.343,-0.006 0.614,-0.39782 0.6022,-0.86472 -0.016,-0.57066 0.4951,-0.76371 1.5544,-0.58889 1.6227,0.26779 3.0026,1.4977 1.4911,1.32905 -1.739,-0.19388 -2.3501,0.1187 -1.9803,1.01446 0.2438,0.59052 -0.142,1.14732 -1.0725,1.54771 -1.4427,0.6206 -1.4407,0.6252 0.2627,0.62133 0.9438,0 1.7234,0.28667 1.7324,0.64175 0.01,0.42745 0.3889,0.43388 1.1193,0.0192 0.8846,-0.50254 1.1282,-0.37687 1.2303,0.63496 0.1017,1.01049 -0.1469,1.19535 -1.2514,0.92903 -0.7583,-0.18301 -2.167,-0.31643 -3.1306,-0.29659 -0.9637,0.0192 -1.6089,-0.20988 -1.4338,-0.50945 0.1756,-0.30075 -0.8558,-0.29979 -2.301,0 -1.4404,0.30139 -2.7657,0.34122 -2.9451,0.0889 -0.5254,-0.73936 -3.1518,-1.15404 -3.1351,-0.49502 0.01,0.33115 -0.2252,0.46165 -0.5192,0.29019 -0.8476,-0.49466 -5.1361,1.0088 -4.7152,1.65294 0.209,0.31931 1.4856,0.55271 2.8374,0.51848 1.3669,-0.0342 2.4654,0.24156 2.475,0.62165 0.01,0.43372 1.1562,0.57594 3.1305,0.38877 1.7122,-0.16221 3.1182,-0.0851 3.1246,0.17277 0.01,0.25724 0.5027,0.45957 1.1031,0.44965 0.6003,-0.006 1.5202,0.2742 2.044,0.63116 0.8299,0.56576 0.8239,0.61225 -0.047,0.36144 -0.55,-0.15837 -1.3883,0.006 -1.863,0.35924 -0.7179,0.53805 -0.703,0.59232 0.088,0.32251 0.5231,-0.17853 1.7919,0.0224 2.8196,0.45086 1.6963,0.70382 1.4398,0.75629 -2.7832,0.56884 -4.2654,-0.18941 -4.5789,-0.12286 -3.7745,0.79775 0.7446,0.85237 0.7427,0.97869 -0.013,0.83545 -0.4895,-0.0928 -0.8109,0.18013 -0.7143,0.60693 0.097,0.42659 -0.2755,0.78704 -0.8265,0.80102 -0.7005,0.0192 -0.8827,-0.30651 -0.6051,-1.07681 0.7216,-2.00248 0.6005,-2.32351 -0.9494,-2.51721 -1.2895,-0.16125 -1.4098,-0.0486 -0.7515,0.70513 1.1177,1.27931 0.3187,2.93919 -1.4359,2.9836 -0.8208,0.0224 -1.4858,0.29883 -1.4777,0.61797 0.01,0.31899 -0.6145,0.686 -1.3835,0.81507 -2.0693,0.34752 -1.6695,1.38732 0.835,2.17128 1.2109,0.37898 1.7951,0.71518 1.2982,0.74717 -0.7227,0.0461 -0.7435,0.20989 -0.1043,0.81794 0.8185,0.77805 1.0746,0.8518 3.2374,0.93207 0.6871,0.0256 1.2594,0.44959 1.2719,0.94234 0.016,0.55325 0.7939,0.95126 2.0389,1.0405 l 2.016,0.14461 -2.1158,2.07882 c -1.8826,1.84958 -2.5154,2.08925 -5.7385,2.17333 -2.2558,0.0566 -3.4713,0.32629 -3.2215,0.70846 0.2208,0.33767 0.104,0.6214 -0.2591,0.63065 -0.3633,0.01 -0.6751,-0.56116 -0.693,-1.26741 -0.019,-0.71101 -0.3109,-1.10208 -0.6564,-0.8763 -0.3432,0.22429 -0.4272,0.70862 -0.1872,1.0763 0.3081,0.4717 -0.8344,0.58067 -3.8807,0.37008 -14.6299,-1.01157 -18.2028,-1.27604 -19.3234,-1.43041 -0.6888,-0.095 -1.8062,0.13726 -2.4831,0.51566 -0.6769,0.37849 -2.074,0.65685 -3.1045,0.61852 -1.4284,-0.0528 -1.6479,0.0717 -0.9229,0.52375 0.8385,0.52321 0.8367,0.59753 -0.016,0.62754 -0.5316,0.0224 -1.2495,-0.23516 -1.5955,-0.564 -0.3459,-0.32894 -1.9658,-0.61471 -3.5994,-0.63519 -1.6338,-0.0224 -3.1146,-0.25756 -3.2909,-0.5273 -0.1759,-0.26972 -1.0238,-0.14782 -1.8836,0.27035 -1.224,0.59558 -1.6761,0.5879 -2.0834,-0.0349 -0.384,-0.58755 -0.8343,-0.61734 -1.7206,-0.1139 -0.8169,0.46421 -4.1783,0.57529 -10.5233,0.34778 -11.847,-0.42489 -12.9067,-0.40099 -12.4611,0.28091 0.4845,0.74125 4.0186,1.19254 9.5894,1.22453 3.0883,0.0192 4.4519,0.25468 4.2784,0.74356 -0.1517,0.42716 0.7398,0.85083 2.2025,1.04689 3.6216,0.48555 3.1855,1.74678 -0.4802,1.38886 -1.6343,-0.15965 -7.1851,-0.34106 -12.3351,-0.40333 -5.1499,-0.0624 -11.0512,-0.2246 -13.114,-0.36061 -2.0628,-0.13629 -4.0895,-0.25723 -4.5037,-0.26907 -0.4142,-0.0128 -0.6319,-0.2294 -0.4839,-0.48309 0.1482,-0.25372 -0.1574,-0.61302 -0.6794,-0.79836 -1.9171,-0.68049 -11.9318,-1.39884 -20.4323,-1.46564 -4.8045,-0.0381 -9.1482,-0.28604 -9.6528,-0.55194 -1.0799,-0.56893 -7.0678,0.68942 -7.0478,1.481 0.01,0.29851 1.3994,0.35306 3.0929,0.12094 1.9779,-0.271 3.2425,-0.17213 3.5357,0.27643 0.2803,0.42908 0.1747,0.53389 -0.2748,0.27163 -0.4366,-0.25467 -0.7211,-0.0224 -0.706,0.5728 0.016,0.60608 -0.4062,0.93831 -1.0707,0.84393 -0.7294,-0.10335 -1.0295,0.19229 -0.8971,0.88443 0.1094,0.57193 -0.085,1.22529 -0.4313,1.45182 -0.3466,0.22652 -0.6391,0.0586 -0.65,-0.37332 -0.016,-0.55734 -0.2083,-0.58684 -0.6699,-0.10142 -0.5835,0.61378 -0.9556,1.8842 -1.0739,3.66575 -0.022,0.34382 -0.3242,0.21085 -0.6697,-0.29499 -0.5797,-0.84907 -0.703,-0.74557 -0.575,0.48258 0.026,0.25691 -0.5953,0.64363 -1.3823,0.85973 -1.0187,0.27963 -1.6388,0.048 -2.1526,-0.80985 -0.4808,-0.80166 -0.8615,-0.96304 -1.1411,-0.48389 -0.2307,0.39545 -0.1059,0.71108 0.2777,0.70135 0.3835,-0.01 0.5465,0.2406 0.3623,0.5563 -0.594,1.01791 -2.9465,0.0653 -2.5927,-1.04991 0.2694,-0.84952 0.1878,-0.83519 -0.4934,0.0864 -0.902,1.22024 -5.3437,2.18862 -5.3694,1.17062 -0.01,-0.34756 -0.3532,-0.41155 -0.7653,-0.14238 -0.4121,0.2694 -3.8465,0.49089 -7.6321,0.49246 -3.7855,0 -10.1805,0.0381 -14.211,0.0819 -4.0306,0.0438 -7.3334,-0.0848 -7.3397,-0.28475 -0.01,-0.19997 -0.8535,-0.34251 -1.8825,-0.31643 -1.0291,0.0256 -1.8652,0.27419 -1.8582,0.55165 0.01,0.27739 -0.714,0.24892 -1.6023,-0.0637 -2.2672,-0.79689 -2.8048,-0.69099 -2.3297,0.45909 0.3461,0.83794 0.2047,0.89371 -0.8814,0.3474 -1.0032,-0.50468 -1.4602,-0.43932 -2.0358,0.29083 -0.4081,0.51799 -0.5665,0.97245 -0.352,1.00988 0.2147,0.0374 0.6483,0.0966 0.9639,0.1315 0.3154,0.0349 0.7894,0.26875 1.0532,0.51934 0.2636,0.25051 1.6727,0.42572 3.131,0.38879 1.4583,-0.0368 3.1705,0.11742 3.8049,0.34305 1.0093,0.35879 0.9598,0.46376 -0.3957,0.83932 -1.3728,0.38032 -1.2798,0.45602 0.8164,0.66507 1.772,0.17661 2.2823,0.0336 2.0334,-0.56867 -0.4117,-0.99667 4.9419,-1.28932 5.585,-0.30555 0.2706,0.41398 -0.153,0.51066 -1.2044,0.27483 -1.0131,-0.22716 -1.615,-0.1043 -1.6041,0.32759 0.01,0.38016 0.2269,0.63986 0.4827,0.57712 0.2556,-0.0624 1.3027,0.0966 2.3263,0.35428 1.6012,0.40281 1.6953,0.5313 0.6742,0.91879 -0.8386,0.31835 -0.2925,0.55012 1.8608,0.78992 3.2286,0.35958 4.3358,-0.01 2.7938,-0.9307 -0.7415,-0.44306 -0.6544,-0.56592 0.4263,-0.60089 0.7471,-0.0256 1.8084,0.38384 2.3584,0.90667 0.5499,0.52272 1.3091,0.74845 1.6871,0.50135 0.378,-0.247 0.8735,-0.17085 1.1011,0.16893 0.2278,0.34011 2.3586,0.74257 4.7353,0.89432 4.1738,0.26651 5.2857,0.54995 4.6756,1.19167 -0.159,0.16733 -3.195,0.51825 -6.7466,0.77984 -3.7193,0.27387 -6.6311,0.77312 -6.8671,1.1773 -0.2713,0.46508 -0.5458,0.37181 -0.8136,-0.27643 -0.5402,-1.30794 -6.6909,-1.26702 -6.6577,0.0442 0.019,0.68059 -0.8392,0.81647 -4.0401,0.64089 -2.6886,-0.1475 -4.0561,0.006 -4.0449,0.44946 0.029,1.13427 0.6492,1.21215 10.9555,1.37394 10.8516,0.17022 13.5203,0.43628 14.1765,1.4126 0.4509,0.67083 2.2132,0.74893 15.0461,0.66651 4.3731,-0.0288 9.0123,0.19421 10.3093,0.49416 1.2969,0.29979 5.3076,0.58291 8.9126,0.62914 3.6051,0.0461 8.8031,0.15933 11.5512,0.25084 2.7481,0.0918 8.2159,0.26907 12.1505,0.39363 3.9346,0.12446 7.7313,0.3458 8.437,0.49166 0.7058,0.1459 2.3254,0.22044 3.5992,0.16605 1.7875,-0.0765 2.2413,0.11102 1.9886,0.82297 -0.2735,0.77075 -1.7224,0.90314 -8.8132,0.80534 -4.6671,-0.0643 -8.6968,-0.24028 -8.955,-0.39095 -0.2582,-0.15069 -0.6194,-0.016 -0.803,0.29787 -0.4581,0.78493 1.8517,1.2636 5.6794,1.17686 2.6699,-0.0605 3.2607,0.13246 3.5583,1.16288 0.3291,1.14019 0.8382,1.21468 6.6039,0.96665 3.5775,-0.15389 6.607,0 7.0891,0.36174 0.886,0.66372 3.9706,1.24308 8.6675,1.62801 3.9654,0.32503 4.3752,0.51934 4.4712,2.12112 0.047,0.78182 0.2186,1.06532 0.3813,0.6301 0.1629,-0.43532 0.5756,-0.62831 0.9173,-0.42882 0.3417,0.19932 1.6551,0.33479 2.9186,0.30074 1.2634,-0.032 2.5836,0.15998 2.9337,0.43049 0.3501,0.27068 1.7943,0.55863 3.2095,0.63993 1.415,0.0813 2.5471,0.42924 2.5157,0.77331 -0.032,0.34397 -0.3404,0.53082 -0.6866,0.4151 -0.3462,-0.11582 -2.736,-0.23068 -5.3108,-0.255 -2.5748,-0.0224 -5.1068,-0.20669 -5.6267,-0.4048 -0.9355,-0.35651 -3.0294,0.60256 -2.4496,1.12218 0.1654,0.14814 1.5425,0.40749 3.0602,0.57613 2.7845,0.30939 4.2741,0.90107 2.3883,0.9488 -0.6504,0.016 -0.8813,0.36144 -0.6373,0.95216 0.3082,0.74618 -0.2066,0.93844 -2.6467,0.98819 -1.6663,0.0342 -4.0658,-0.15166 -5.3325,-0.41232 -1.9392,-0.39913 -2.2417,-0.32525 -1.9142,0.46764 0.3039,0.73565 0.033,0.88289 -1.2397,0.67288 -0.8959,-0.14782 -1.9918,-0.0256 -2.4355,0.27195 -0.5382,0.36071 -0.2025,0.52855 1.0088,0.5043 1.2448,-0.0256 2.3868,0.57174 3.6324,1.89767 0.9991,1.06385 2.0009,1.7405 2.2258,1.50378 0.2249,-0.23644 0.082,-0.42205 -0.3183,-0.41187 -0.4002,0.01 -0.7338,-0.22556 -0.7413,-0.52379 -0.01,-0.29819 0.9449,-0.5328 2.1165,-0.52157 1.6282,0.016 1.9828,0.20796 1.5044,0.81647 -0.4566,0.58057 -0.3522,0.78892 0.3859,0.77027 1.1426,-0.0288 1.3781,0.92816 0.3876,1.57548 -0.4259,0.27835 -0.2476,0.86808 0.5109,1.6912 0.6406,0.69518 0.7768,1.04914 0.303,0.78656 -0.5215,-0.28891 -1.0683,-0.13246 -1.3846,0.39577 -0.4133,0.69061 -0.5304,0.64511 -0.5598,-0.21788 -0.022,-0.60006 -0.1545,-1.08817 -0.2978,-1.08455 -0.1434,0.006 -0.7555,-0.16893 -1.3602,-0.38359 -0.6998,-0.2486 -0.944,-0.15261 -0.672,0.26364 0.7185,1.09927 -1.2117,1.44251 -6.9042,1.22763 -5.9752,-0.22556 -13.8561,0.56615 -12.6489,1.27067 0.4192,0.24476 2.0824,0.45365 3.6959,0.4645 1.6136,0.01 5.5596,0.25852 8.7689,0.54992 3.2095,0.29179 6.216,0.373 6.6814,0.18077 0.5508,-0.22748 0.7323,-0.0288 0.5201,0.56851 -0.4531,1.27662 -3.1071,1.90087 -4.2505,0.99974 -0.6195,-0.4883 -0.9409,-0.51287 -0.9298,-0.0713 0.01,0.3712 -0.799,0.6367 -1.7964,0.58992 -0.9974,-0.047 -1.6714,-0.32929 -1.4978,-0.62786 0.1734,-0.29851 -0.3457,-0.31867 -1.154,-0.0442 -0.8083,0.2742 -1.5495,0.71969 -1.647,0.99005 -0.098,0.27035 -0.9439,0.11774 -1.8807,-0.33918 -1.1106,-0.54157 -1.7745,-0.60076 -1.9077,-0.17021 -0.2927,0.94707 0.067,1.14208 2.3137,1.25624 1.0989,0.0553 2.004,0.33898 2.0114,0.6292 0.01,0.2902 0.2703,0.35978 0.5848,0.15422 0.3142,-0.20541 0.7391,-0.1171 0.944,0.19645 0.2048,0.31354 -0.1219,0.50657 -0.7261,0.42904 -0.6042,-0.0777 -1.2911,0.17501 -1.5264,0.56138 -0.2595,0.42627 -2.0147,0.67662 -4.464,0.63663 -2.2199,-0.0362 -4.1934,0.20381 -4.3857,0.5331 -0.5163,0.88478 8.8367,2.30025 16.5648,2.50697 7.8749,0.21052 12.9219,0.70526 14.7016,1.44097 1.0405,0.43007 4.5631,0.91642 7.8278,1.08075 6.6503,0.33469 8.4763,0.79929 10.0903,2.56786 0.812,0.88967 2.6087,1.40562 6.6532,1.91072 3.0476,0.38051 8.0879,1.46506 11.2009,2.41002 7.049,2.13977 13.814,3.57976 16.4698,3.50569 1.8448,-0.0531 2.8064,0.76857 1.5338,1.3081 -0.287,0.12158 -0.6842,0.96541 -0.8826,1.87501 -0.4592,2.1056 0.6578,3.02356 3.7949,3.11874 1.8158,0.055 2.5747,0.42333 3.1641,1.53552 0.4263,0.80464 1.6226,1.84725 2.6583,2.31696 1.3118,0.59481 1.803,1.19506 1.6192,1.97861 -0.1808,0.77085 0.1971,1.25889 1.2012,1.55117 1.3453,0.39145 1.2874,0.46408 -0.7073,0.88625 -1.1948,0.25307 -5.1228,0.39305 -8.7287,0.3113 -10.5623,-0.239 -14.1776,0.62684 -8.7905,2.10564 1.5381,0.42217 1.4698,0.47512 -0.8129,0.63122 -2.4762,0.16925 -2.4801,0.17341 -0.6155,0.67867 1.032,0.27963 3.1811,0.44591 4.776,0.36963 3.1731,-0.15197 4.2968,0.24124 4.3289,1.51508 0.013,0.45752 0.5091,1.00514 1.1055,1.21688 0.9345,0.33169 0.9596,0.47624 0.1827,1.04568 -0.686,0.50264 -0.7125,0.73213 -0.1104,0.95859 1.6326,0.6143 0.1142,1.28459 -2.398,1.05858 -2.4462,-0.21981 -7.0056,0.88369 -8.2277,1.99173 -0.7685,0.69665 1.4238,0.99596 9.3271,1.27354 3.7788,0.13246 8.1374,0.36142 9.6855,0.50821 1.5483,0.14653 4.0076,0.23196 5.4652,0.18877 5.138,-0.15134 2.1212,2.10739 -3.2826,2.45766 -2.0183,0.13086 -4.0136,0.51873 -4.4339,0.862 -0.4203,0.34321 -0.7689,0.43951 -0.7746,0.21373 -0.01,-0.22557 -0.5155,-0.12318 -1.1329,0.2278 -0.6172,0.35072 -2.8409,0.74333 -4.9414,0.87246 -4.6243,0.28411 -5.8479,0.89156 -3.8355,1.90384 0.8477,0.42646 2.4,0.54157 3.798,0.28155 1.3401,-0.24923 2.5384,-0.17309 2.7663,0.17566 0.2211,0.33834 1.1578,0.61829 2.0815,0.62194 0.9238,0.006 1.3323,0.15741 0.9079,0.34113 -1.4521,0.62907 -0.7713,2.10025 0.9902,2.13961 1.9509,0.0438 -4.2959,1.09178 -8.5443,1.43371 -1.5414,0.12414 -3.2304,0.44981 -3.7534,0.72384 -0.523,0.2742 -3.0415,0.62304 -5.5968,0.77533 -2.5552,0.15229 -5.2016,0.51105 -5.8807,0.79715 -1.1899,0.50119 5.2542,0.17949 19.0092,-0.94925 3.5964,-0.29499 6.3146,-0.29563 6.0404,0 -0.2742,0.29435 -0.8288,0.57468 -1.2323,0.62277 -0.4037,0.048 -1.2239,0.1427 -1.8228,0.21021 -1.6951,0.19101 -1.2653,1.01816 0.984,1.89395 1.4389,0.56026 4.6108,0.70379 10.6613,0.48258 8.628,-0.31547 12.7861,0.26139 8.4967,1.17906 -1.1547,0.247 -5.0425,0.66415 -8.6397,0.92692 -5.734,0.41884 -16.9059,1.52173 -25.5221,2.51945 -1.54,0.17821 -6.1635,0.57331 -10.2745,0.8778 -9.1595,0.67845 -12.8516,1.21727 -13.7785,2.0109 -0.451,0.38611 -0.8624,0.37283 -1.1299,-0.0368 -0.5888,-0.90094 -2.2557,-0.76314 -2.0426,0.16893 0.1053,0.46046 -0.8176,0.94729 -2.3093,1.218 -1.793,0.32539 -2.0496,0.48517 -0.9216,0.57386 0.8598,0.0675 1.913,0.0685 2.3403,0 0.4273,-0.0666 0.7843,0.16893 0.7933,0.52311 0.01,0.35415 -0.6161,0.62303 -1.389,0.5974 -2.6837,-0.0889 -10.1135,1.12247 -10.3075,1.68055 -0.1072,0.30875 -0.4403,0.41817 -0.74,0.24348 -0.2998,-0.17469 -3.5695,0.0525 -7.2665,0.50491 -3.6968,0.45244 -9.1033,1.0262 -12.0144,1.27486 -4.2374,0.36195 -14.1686,1.52019 -19.9107,2.32207 -0.513,0.0717 -2.3277,0.49336 -4.0325,0.93722 -3.2381,0.84293 -6.0689,1.38649 -7.9181,1.52036 -0.5996,0.0429 -1.083,0.35952 -1.0744,0.7025 0.019,0.75655 2.7739,0.74308 5.3079,-0.0256 1.0196,-0.30939 2.5599,-0.4007 3.423,-0.20253 1.3606,0.31195 1.198,0.43855 -1.224,0.9519 -1.5363,0.32558 -3.578,0.67826 -4.5372,0.78355 -2.2975,0.25244 -2.889,0.94593 -1.1539,1.35306 2.5182,0.59091 1.4641,1.2187 -2.45,1.45918 -2.1218,0.13053 -4.0638,0.37174 -4.3156,0.53632 -0.2518,0.16445 -4.6964,0.53553 -9.8769,0.82415 -5.1804,0.28891 -9.8877,0.84121 -10.4608,1.22776 -0.8005,0.53998 -0.4154,0.60144 1.6627,0.26524 1.5321,-0.24764 3.6134,-0.13438 4.8014,0.2614 1.6451,0.54822 4.5545,0.46113 13.4994,-0.40406 18.9806,-1.8356 29.6909,-3.59643 30.8036,-5.06431 0.5059,-0.66753 0.7613,-0.73783 0.7746,-0.2134 0.016,0.5863 1.0737,0.66488 4.2203,0.31355 2.3102,-0.2582 6.1609,-0.6734 8.5572,-0.92286 2.3963,-0.24956 6.0335,-0.78143 8.0827,-1.18233 2.0492,-0.40073 4.5682,-0.73005 5.5979,-0.73181 1.0296,0 3.0872,-0.006 4.5725,-0.006 3.6397,-0.006 2.5623,1.01836 -1.5202,1.44472 -0.7418,0.0774 -1.5538,0.35664 -1.8044,0.62037 -0.2505,0.26364 -1.3911,0.50328 -2.5345,0.5322 -2.2975,0.0582 -2.8824,1.2771 -0.6422,1.33824 0.7728,0.0224 1.5869,0.01 1.8091,-0.0256 3.2327,-0.50664 8.2194,-0.34977 8.6254,0.27131 0.3592,0.54957 1.5189,0.61555 4.1579,0.23612 3.3538,-0.48184 3.5581,-0.44408 2.4433,0.45138 -0.669,0.53751 -1.4334,0.85058 -1.6985,0.69589 -0.2652,-0.15486 -0.4709,0.0861 -0.4574,0.53495 0.035,1.10128 3.7377,3.13649 5.7764,3.17342 0.9043,0.016 2.1397,0.50071 2.7451,1.0762 0.6934,0.65912 1.5617,0.88721 2.3461,0.61622 0.8579,-0.29627 1.1687,-0.17981 0.9992,0.37513 -0.3209,1.0508 4.1048,4.84191 5.6207,4.81459 2.1124,-0.0381 3.9969,0.64475 4.0174,1.45585 0.026,1.03026 1.4564,1.51728 4.248,1.44664 3.8394,-0.0973 1.8986,0.51326 -3.0385,0.95568 -4.305,0.38579 -6.9211,0.84114 -9.1095,1.58543 -0.6122,0.20828 -0.4561,0.7783 0.6223,2.27235 0.7919,1.09678 1.8796,2.33411 2.4174,2.74953 0.8182,0.63215 0.8312,0.7615 0.079,0.79311 -4.281,0.18013 -10.7632,0.99452 -12.0242,1.51088 -0.8528,0.3491 -3.8759,0.85311 -6.7182,1.11985 -8.5354,0.80121 -11.3334,1.31296 -10.3607,1.89507 0.6911,0.41363 0.6456,0.53057 -0.2176,0.56001 -1.2549,0.0429 -1.4452,1.02056 -0.2761,1.4196 0.4328,0.14781 4.1523,0.0931 8.2655,-0.12158 5.0454,-0.263 7.0269,-0.18909 6.0902,0.22812 -0.7636,0.34004 -1.3857,0.72487 -1.3824,0.85534 0.01,0.13054 4.4263,0.13374 9.8289,0.006 16.66,-0.38976 26.3582,-0.30299 26.3718,0.2358 0.01,0.28348 -1.3187,0.60192 -2.9463,0.70753 -1.6277,0.10559 -3.9404,0.2646 -5.1394,0.35377 -7.216,0.53578 -23.1438,1.60898 -29.1969,1.96735 -3.8952,0.23068 -7.228,0.57238 -7.4059,0.75955 -0.1779,0.18717 -0.9168,0.2166 -1.6419,0.0646 -0.7251,-0.15165 -2.1538,0.006 -3.1747,0.35009 -1.021,0.3441 -1.5049,0.64082 -1.0754,0.65941 0.4294,0.0192 0.792,0.4715 0.8055,1.00619 0.013,0.53476 -0.2374,0.81929 -0.5578,0.63238 -0.3202,-0.18717 -1.0172,0.11742 -1.5487,0.67675 -0.5315,0.55911 -0.8004,1.2706 -0.5975,1.58095 0.2029,0.31067 -0.6134,0.58931 -1.8139,0.61967 -1.2005,0.032 -2.3464,-0.19516 -2.5463,-0.501 -0.213,-0.32596 -1.2631,-0.255 -2.5367,0.17149 -1.7839,0.59728 -2.1027,0.95808 -1.7796,2.01457 0.2166,0.70789 0.1577,1.01212 -0.1309,0.67618 -1.1248,-1.31005 -2.1209,-0.90718 -1.7829,0.72113 l 0.3348,1.6123 -6.6829,-0.21212 c -3.6754,-0.11678 -7.7739,-0.34961 -9.1077,-0.51774 -1.6158,-0.20381 -2.5798,-0.0406 -2.8884,0.48801 -0.362,0.62025 -1.0804,0.65487 -3.286,0.15838 -1.5525,-0.34942 -5.7325,-0.71889 -9.2889,-0.82098 -3.5564,-0.10207 -7.2754,-0.29212 -8.2644,-0.42185 -1.4921,-0.19581 -1.6701,-0.0896 -1.046,0.62485 0.4137,0.47362 0.5311,0.9831 0.2608,1.13226 -0.8535,0.47093 -4.3097,0.60707 -4.7514,0.18717 z m -188.9033,5.40098 c 0.4244,-0.18397 1.126,-0.20156 1.5592,-0.0394 0.4331,0.16221 0.086,0.31259 -0.7716,0.33428 -0.8576,0.0224 -1.2119,-0.11102 -0.7876,-0.29499 z"
       id="path4745"
       style="fill:#000000" />
  </g>
</svg>
